<?xml version="1.0" encoding="utf-8"?>
<!-- Generator: Adobe Illustrator 24.2.3, SVG Export Plug-In . SVG Version: 6.00 Build 0)  -->
<svg version="1.1" id="Layer_1" xmlns="http://www.w3.org/2000/svg" xmlns:xlink="http://www.w3.org/1999/xlink" x="0px" y="0px"
	 viewBox="0 0 478.9 482.9" style="enable-background:new 0 0 478.9 482.9;" xml:space="preserve">
<style type="text/css">
	.st0{fill:#FFA033;}
	.st1{display:none;}
	.st2{display:inline;}
	.st3{fill:#FFFFFF;}
	.st4{display:inline;fill:#FFFFFF;stroke:#FFFFFF;stroke-width:3;stroke-miterlimit:10;}
	.st5{fill:#EE3C96;}
	.st6{display:inline;fill:#FFFFFF;}
	.st7{display:inline;fill:#4A68B1;stroke:#4A68B1;stroke-width:0.25;stroke-miterlimit:10;}
	.st8{display:inline;fill:#4A68B1;stroke:#4A68B1;stroke-miterlimit:10;}
	.st9{fill:#0F1041;}
	.st10{display:inline;fill:#FFCD34;}
</style>
<g id="Layer_1_1_">
	<rect x="4.2" y="95.7" class="st0" width="72" height="72"/>
	<rect x="310.2" y="5.7" class="st0" width="72" height="72"/>
	<g>
		<polygon class="st0" points="310.2,95.7 166.2,95.7 166.2,167.7 94.2,167.7 94.2,383.7 166.2,383.7 166.2,311.7 238.2,311.7 
			238.2,383.7 382.2,383.7 382.2,311.7 310.2,311.7 310.2,239.7 382.2,239.7 382.2,167.7 310.2,167.7 		"/>
	</g>
	<rect x="166.2" y="401.7" class="st0" width="72" height="72"/>
	<rect x="400.2" y="239.7" class="st0" width="72" height="72"/>
</g>
<g id="Layer_2_1_" class="st1">
	<g class="st2">
		<g>
			<path d="M381.1,313.7c0.2,19.6,0.1,39.2-0.3,58.8c-0.1,5.5-0.3,11.1-0.5,16.6c0,0.8,1.2,0.8,1.3,0c0.6-19.6,0.9-39.2,0.9-58.8
				c0-5.5,0-11.1-0.1-16.6C382.3,312.9,381.1,312.9,381.1,313.7L381.1,313.7z"/>
		</g>
	</g>
	<g class="st2">
		<g>
			<path d="M381.1,309.7c0.3,17.7,0.4,35.4,0.3,53.1c0,5.1-0.1,10.1-0.1,15.2c0,0.8,1.2,0.8,1.3,0c0.2-17.7,0.2-35.4,0-53.1
				c-0.1-5.1-0.1-10.1-0.2-15.2C382.3,308.9,381.1,308.9,381.1,309.7L381.1,309.7z"/>
		</g>
	</g>
	<g class="st2">
		<g>
			<path d="M245.7,385.8c5.8-0.8,11.7-1,17.5-0.8c0.8,0,0.8-1.2,0-1.3c-6-0.3-11.9,0-17.8,0.8C244.5,384.7,244.9,385.9,245.7,385.8
				L245.7,385.8z"/>
		</g>
	</g>
	<g class="st2">
		<g>
			<path d="M241.5,388.4c28.8-0.2,57.5-0.6,86.3-1.2c8.1-0.2,16.3-0.4,24.4-0.6c0.8,0,0.8-1.3,0-1.3c-28.8,0.7-57.5,1.3-86.3,1.6
				c-8.1,0.1-16.3,0.2-24.4,0.2C240.7,387.1,240.7,388.4,241.5,388.4L241.5,388.4z"/>
		</g>
	</g>
	<g class="st2">
		<g>
			<path d="M248.7,385.3c17.7-1.8,35.4-3.1,53.1-3.9c17.7-0.9,35.5-1.3,53.2-1.2c10.1,0,20.1,0.2,30.2,0.5c0.8,0,0.8-1.2,0-1.3
				c-17.7-0.5-35.5-0.6-53.2-0.3c-17.7,0.4-35.5,1.2-53.2,2.4c-10,0.7-20.1,1.6-30.1,2.6C247.9,384.1,247.9,385.3,248.7,385.3
				L248.7,385.3z"/>
		</g>
	</g>
	<g class="st2">
		<g>
			<path d="M305.7,316c17.3-0.1,34.6-0.3,52-0.7c4.9-0.1,9.8-0.2,14.7-0.4c0.8,0,0.8-1.3,0-1.3c-17.3,0.5-34.6,0.8-52,0.9
				c-4.9,0-9.8,0.1-14.7,0.1C304.9,314.8,304.9,316,305.7,316L305.7,316z"/>
		</g>
	</g>
	<g class="st2">
		<g>
			<path d="M320.2,313.5c18.3-1.1,36.8-1.2,55.1-0.1c5.2,0.3,10.4,0.7,15.5,1.2c0.8,0.1,0.8-1.2,0-1.3c-18.3-1.7-36.7-2.3-55.1-1.8
				c-5.2,0.1-10.4,0.4-15.6,0.7C319.4,312.3,319.4,313.5,320.2,313.5L320.2,313.5z"/>
		</g>
	</g>
	<g class="st2">
		<g>
			<path d="M307.8,242.3c-1.2,21.1-1.4,42.3-0.5,63.4c0,0.8,1.3,0.8,1.3,0c-0.8-21.1-0.7-42.3,0.5-63.4
				C309.1,241.5,307.8,241.5,307.8,242.3L307.8,242.3z"/>
		</g>
	</g>
	<g class="st2">
		<g>
			<path d="M310.8,239.1c-1.7,19.3-2.5,38.7-2.2,58.1c0.1,5.5,0.3,11,0.5,16.6c0,0.8,1.3,0.8,1.3,0c-0.9-19.4-0.8-38.8,0.4-58.1
				c0.3-5.5,0.8-11,1.3-16.5C312.1,238.3,310.9,238.3,310.8,239.1L310.8,239.1z"/>
		</g>
	</g>
	<g class="st2">
		<g>
			<path d="M310.8,242.5c19.6-3,39.6-3.5,59.4-1.8c5.7,0.5,11.4,1.2,17,2.1c0.5,0.1,1.2-0.6,0.6-1c-2.1-1.6-4.1-3.2-6.2-4.8
				c-0.6-0.5-1.5,0.4-0.9,0.9c2.1,1.6,4.1,3.2,6.2,4.8c0.2-0.3,0.4-0.7,0.6-1c-19.9-3.2-40.1-4-60.2-2.4c-5.6,0.5-11.3,1.1-16.9,2
				C309.6,241.4,310,242.6,310.8,242.5L310.8,242.5z"/>
		</g>
	</g>
	<g class="st2">
		<g>
			<path d="M347.5,235.5c13.4,0.3,26.8,1.3,40.1,2.9c0.8,0.1,0.8-1.2,0-1.3c-13.3-1.7-26.7-2.7-40.1-2.9
				C346.7,234.2,346.7,235.5,347.5,235.5L347.5,235.5z"/>
		</g>
	</g>
	<g class="st2">
		<g>
			<path d="M379.1,167.7c2.5,10,1,20.6,0.8,30.8c-0.2,10.5-0.1,20.9,0.5,31.4c0.3,5.9,0.7,11.9,1.3,17.8c0.1,0.8,1.3,0.8,1.3,0
				c-1.2-16-1.7-32-1.5-48c0-0.8-1.2-0.8-1.3,0c-0.2,16,0.3,32,1.5,48c0.4,0,0.8,0,1.3,0c-1-10.6-1.6-21.2-1.8-31.9
				c-0.2-10.5,0.2-21,0.5-31.4c0.2-5.7,0-11.4-1.3-17C380.1,166.6,378.9,167,379.1,167.7L379.1,167.7z"/>
		</g>
	</g>
	<g class="st2">
		<g>
			<path d="M374.7,166.6c-8.8-0.5-17.7-0.5-26.6-0.2c-8.7,0.3-17.3,1.3-25.9,1.9c-4.8,0.4-9.7,0.4-14.5-0.8
				c-0.1,0.4-0.1,0.8-0.2,1.2c19.4,0.4,38.8,0.8,58.1,1.1c0.8,0,0.8-1.2,0-1.3c-14.4-0.8-28.8-0.3-43.2,1.4c-0.8,0.1-0.8,1.3,0,1.3
				c14.3-1.7,28.8-2.1,43.2-1.4c0-0.4,0-0.8,0-1.3c-19.4-0.4-38.8-0.8-58.1-1.1c-0.7,0-0.9,1.1-0.2,1.2c8.3,2,16.9,0.6,25.2-0.1
				c8.9-0.8,17.8-1.1,26.8-1.1c5.1,0,10.2,0.2,15.2,0.4C375.5,167.9,375.5,166.6,374.7,166.6L374.7,166.6z"/>
		</g>
	</g>
	<g class="st2">
		<g>
			<path d="M307.1,97c0.1,19.7,0.3,39.4,0.4,59.2c0,5.6,0.1,11.2,0.1,16.7c0,0.8,1.2,0.8,1.3,0c1.6-17.6,2-35.3,1.1-53
				c-0.3-5-0.6-10-1.1-15c-0.1-0.8-1.3-0.8-1.3,0c1.6,17.6,2,35.3,1.1,53c-0.3,5-0.6,10-1.1,15c0.4,0,0.8,0,1.3,0
				c-0.1-19.7-0.3-39.4-0.4-59.2c0-5.6-0.1-11.2-0.1-16.7C308.4,96.2,307.1,96.1,307.1,97L307.1,97z"/>
		</g>
	</g>
	<g class="st2">
		<g>
			<path d="M182.1,100.8c0.8,0,0.8-1.3,0-1.3S181.3,100.8,182.1,100.8L182.1,100.8z"/>
		</g>
	</g>
	<g class="st2">
		<g>
			<path d="M160.4,98.6c-2.6,0.1-5-0.8-6.9-2.6c-0.1,0.3-0.2,0.7-0.3,1c24.5-7.8,50.4-1.2,75.3,1c1.7,0.2,3.4,0.3,5.1,0.4
				c1.6,0.1,3.5,0.4,5.2,0.2c0.8-0.1,1.6-0.6,1.7-1.5c0.1-0.9-0.4-1.5-1.3-1.6c-0.8-0.1-0.8,1.2,0,1.3c0.3,0-0.6,0.6-0.9,0.7
				c-0.3,0-0.7,0-1,0c-0.6,0-1.2-0.1-1.9-0.1c-1.5-0.1-2.9-0.2-4.4-0.3c-2.9-0.2-5.8-0.5-8.6-0.8c-5.8-0.6-11.5-1.4-17.3-2.1
				c-11.2-1.4-22.5-2.5-33.7-1.7c-6.3,0.5-12.5,1.6-18.6,3.5c-0.4,0.1-0.6,0.7-0.3,1c2.1,2,4.9,3.1,7.8,3
				C161.2,99.8,161.2,98.6,160.4,98.6L160.4,98.6z"/>
		</g>
	</g>
	<g class="st2">
		<g>
			<path d="M176.5,95.5c17,0,34,0.1,51,0.3c17,0.3,34,0.7,51,1.2c9.6,0.3,19.2,0.7,28.8,1.1c0.8,0,0.8-1.2,0-1.3
				c-17-0.7-34-1.3-51-1.7c-17-0.4-34-0.7-51-0.8c-9.6-0.1-19.2-0.1-28.9-0.1C175.7,94.2,175.7,95.5,176.5,95.5L176.5,95.5z"/>
		</g>
	</g>
	<g class="st2">
		<g>
			<path d="M169.8,84.9c-2,18.8-2.6,37.8-1.6,56.7c0.3,5.4,0.7,10.8,1.2,16.2c0.4-0.1,0.7-0.3,1.1-0.4c-0.6-0.7-0.8-1.5-0.6-2.4
				c0.2-0.8-1-1.1-1.2-0.3c-0.3,1.3,0,2.5,0.9,3.6c0.3,0.4,1.1,0.1,1.1-0.4c-1.9-18.8-2.2-37.8-1-56.7c0.3-5.4,0.8-10.8,1.4-16.2
				C171.1,84.1,169.8,84.1,169.8,84.9L169.8,84.9z"/>
		</g>
	</g>
	<g class="st2">
		<g>
			<path d="M166.3,94.6c-0.5,17.7-0.4,35.4,0.2,53c0.2,5.1,0.4,10.1,0.7,15.2c0,0.8,1.3,0.8,1.3,0c-1-17.7-1.4-35.3-1.2-53
				c0.1-5.1,0.2-10.1,0.3-15.2C167.6,93.7,166.3,93.7,166.3,94.6L166.3,94.6z"/>
		</g>
	</g>
	<g class="st2">
		<g>
			<path d="M92.9,164.3c18.7,3.3,37.5,5.4,56.4,6.2c5.4,0.2,10.8,0.4,16.2,0.4c0.5,0,0.8-0.5,0.5-0.9c-0.7-1.3-1.9-1.9-3.3-2.1
				c-0.8-0.1-0.8,1.2,0,1.3c1,0.1,1.7,0.6,2.2,1.5c0.2-0.3,0.4-0.6,0.5-0.9c-18.9-0.1-37.8-1.4-56.5-4c-5.3-0.7-10.6-1.6-15.8-2.5
				C92.5,162.9,92.1,164.2,92.9,164.3L92.9,164.3z"/>
		</g>
	</g>
	<g class="st2">
		<g>
			<path d="M106.6,169.1c20.1-0.4,40.2-0.5,60.3-0.3c5.6,0.1,11.3,0.2,16.9,0.3c0.6,0,0.9-0.9,0.3-1.2c-0.6-0.3-1.2-0.6-1.8-0.9
				c-0.7-0.4-1.4,0.7-0.6,1.1c0.6,0.3,1.2,0.6,1.8,0.9c0.1-0.4,0.2-0.8,0.3-1.2c-20.1-0.4-40.2-0.5-60.3-0.3
				c-5.6,0.1-11.3,0.2-16.9,0.3C105.8,167.9,105.8,169.1,106.6,169.1L106.6,169.1z"/>
		</g>
	</g>
	<g class="st2">
		<g>
			<path d="M93.1,179.6c0.4,14.7,0.2,29.5-0.6,44.2c0,0.8,1.2,0.8,1.3,0c0.8-14.7,1-29.4,0.6-44.2C94.3,178.8,93.1,178.8,93.1,179.6
				L93.1,179.6z"/>
		</g>
	</g>
	<g class="st2">
		<g>
			<path d="M90.4,162c-0.7,24.4-1,48.8-0.9,73.3c0.1,24.4,0.6,48.8,1.6,73.3c0.5,13.8,1.2,27.6,2,41.3c0,0.8,1.3,0.8,1.3,0
				c-1.4-24.4-2.4-48.8-3-73.2s-0.7-48.8-0.5-73.3c0.1-13.8,0.4-27.6,0.8-41.4C91.7,161.2,90.4,161.2,90.4,162L90.4,162z"/>
		</g>
	</g>
	<g class="st2">
		<g>
			<path d="M92.4,243.9c-0.5,18.9-0.8,37.8-0.9,56.7c-0.2,18.9-0.2,37.8,0,56.7c0.1,10.7,0.2,21.3,0.4,32c0,0.8,1.3,0.8,1.3,0
				c-0.3-18.9-0.5-37.8-0.5-56.7c0-18.9,0.1-37.8,0.4-56.7c0.2-10.7,0.4-21.3,0.6-32C93.7,243.1,92.4,243.1,92.4,243.9L92.4,243.9z"
				/>
		</g>
	</g>
	<g class="st2">
		<g>
			<path d="M89.8,383.4c17.6-1.1,35.2-1.8,52.8-2.1c5-0.1,10.1-0.2,15.1-0.2c0.8,0,0.8-1.2,0-1.3c-19.3-1.9-38.8-2-58.1-0.3
				c-0.8,0.1-0.8,1.3,0,1.3c20.8-0.3,41.7,0.3,62.5,1.9c0.8,0.1,0.8-1.2,0-1.3c-20.8-1.5-41.6-2.2-62.5-1.9c0,0.4,0,0.8,0,1.3
				c19.3-1.7,38.8-1.6,58.1,0.3c0-0.4,0-0.8,0-1.3c-17.6,0.1-35.2,0.6-52.8,1.5c-5,0.3-10.1,0.5-15.1,0.8
				C89,382.2,89,383.5,89.8,383.4L89.8,383.4z"/>
		</g>
	</g>
	<g class="st2">
		<g>
			<path d="M162.9,308.9c0.1,18.1,0.3,36.2,0.7,54.2c0.1,5.1,0.2,10.3,0.3,15.4c0.4,0,0.8,0,1.3,0c-0.3-2.3-0.1-4.6,0.6-6.9
				c0.2-0.8-1-1.1-1.2-0.3c-0.7,2.4-0.9,4.8-0.6,7.2c0.1,0.8,1.3,0.8,1.3,0c-0.4-18.1-0.8-36.1-0.9-54.2c-0.1-5.1-0.1-10.3-0.1-15.4
				C164.2,308.1,162.9,308.1,162.9,308.9L162.9,308.9z"/>
		</g>
	</g>
	<g class="st2">
		<g>
			<path d="M163.5,314.5c0.6,18.8,0.1,37.6-1.6,56.3c-0.5,5.3-1.1,10.6-1.8,15.9c-0.1,0.8,1.1,0.8,1.3,0c2.4-18.6,3.6-37.4,3.6-56.2
				c0-5.3-0.1-10.7-0.3-16C164.7,313.7,163.5,313.7,163.5,314.5L163.5,314.5z"/>
		</g>
	</g>
	<g class="st2">
		<g>
			<path d="M162.8,312.2c20.5-1.2,41.1-1,61.6,0.6c0.7,0.1,0.9-1.1,0.2-1.2c-4-0.8-8-0.8-12-0.7c-4.2,0.1-8.4,0.3-12.5,0.4
				c-8.4,0.3-16.8,0.6-25.2,0.9c0,0.4,0,0.8,0,1.3c20.8-2.1,41.7-1.9,62.4,0.6c0.8,0.1,0.8-1.2,0-1.3c-20.7-2.5-41.7-2.7-62.4-0.6
				c-0.8,0.1-0.8,1.3,0,1.3c8.2-0.3,16.4-0.6,24.7-0.9c4.1-0.1,8.2-0.3,12.3-0.4s8.3-0.2,12.4,0.6c0.1-0.4,0.1-0.8,0.2-1.2
				c-20.5-1.6-41.1-1.8-61.6-0.6C162,311,162,312.3,162.8,312.2L162.8,312.2z"/>
		</g>
	</g>
	<g class="st2">
		<g>
			<path d="M237.7,306.5c0.4,22.7,0.8,45.4,1.3,68.1c0.1,6.4,0.2,12.8,0.4,19.2c0.4,0,0.8,0,1.3,0c-0.2-2.1-0.4-4.1-0.7-6.2
				c-0.1-0.8-1.3-0.8-1.3,0c0.2,2.1,0.4,4.1,0.7,6.2c0.1,0.8,1.3,0.8,1.3,0c-0.4-22.7-0.8-45.4-1.3-68.1c-0.1-6.4-0.2-12.8-0.4-19.2
				C238.9,305.7,237.7,305.7,237.7,306.5L237.7,306.5z"/>
		</g>
	</g>
	<g class="st2">
		<g>
			<path d="M165.4,403.6c-0.2,18.5,0,37,0.8,55.5c0.2,5.2,0.5,10.5,0.8,15.7c0,0.8,1.2,0.8,1.3,0c0.2-2.2-0.1-4.3-0.8-6.3
				c-0.3-0.8-1.5-0.4-1.2,0.3c0.7,2,0.9,3.9,0.7,6c0.4,0,0.8,0,1.3,0c-1.1-18.5-1.6-37-1.6-55.5c0-5.2,0-10.5,0.1-15.7
				C166.7,402.8,165.4,402.8,165.4,403.6L165.4,403.6z"/>
		</g>
	</g>
	<g class="st2">
		<g>
			<path d="M160.5,404.1c20.8-6.3,42.6-2.1,63.7-0.5c6,0.5,12.1,0.7,18.1,0.5c0.8,0,0.8-1.3,0-1.3c-21.6,0.7-43-4.7-64.7-3.2
				c-5.9,0.4-11.8,1.4-17.5,3.1C159.4,403.1,159.7,404.3,160.5,404.1L160.5,404.1z"/>
		</g>
	</g>
	<g class="st2">
		<g>
			<path d="M241.5,406c-2.6,19.7-3.4,39.6-2.5,59.4c0.3,5.6,0.7,11.3,1.2,16.9c0.1,0.8,1.3,0.8,1.3,0c-1.9-19.8-2-39.7-0.5-59.5
				c0.5-5.6,1-11.2,1.8-16.8C242.8,405.2,241.6,405.2,241.5,406L241.5,406z"/>
		</g>
	</g>
	<g class="st2">
		<g>
			<path d="M160.4,474.1c20.9-2.7,41.8,1.3,62.7-0.6c5.7-0.5,11.4-1.5,16.9-3.1c0.8-0.2,0.4-1.4-0.3-1.2
				c-20.1,5.9-41.1,2.7-61.7,2.7c-5.9,0-11.8,0.2-17.6,1C159.6,473,159.6,474.3,160.4,474.1L160.4,474.1z"/>
		</g>
	</g>
	<g class="st2">
		<g>
			<path d="M183.7,473.8c17.5-1.4,35-1.7,52.6-1c5,0.2,9.9,0.5,14.9,0.9c0.8,0.1,0.8-1.2,0-1.3c-17.5-1.4-35-1.7-52.6-0.9
				c-5,0.2-9.9,0.5-14.9,0.9C182.9,472.6,182.9,473.9,183.7,473.8L183.7,473.8z"/>
		</g>
	</g>
	<g class="st2">
		<g>
			<path d="M240.1,398.8c-1.7,20.6-2.2,41.2-1.5,61.8c0,0.8,1.3,0.8,1.3,0c-0.7-20.6-0.2-41.3,1.5-61.8
				C241.4,398,240.2,398,240.1,398.8L240.1,398.8z"/>
		</g>
	</g>
	<g class="st2">
		<g>
			<path d="M166.8,398.8c1.6,18.3,2.6,36.7,3.2,55.1c0.2,5.2,0.3,10.4,0.3,15.6c0,0.8,1.3,0.8,1.3,0c-0.2-18.4-1-36.8-2.3-55.2
				c-0.4-5.2-0.8-10.4-1.2-15.6C168,398,166.8,398,166.8,398.8L166.8,398.8z"/>
		</g>
	</g>
	<g class="st2">
		<g>
			<path d="M402.6,239.1c-1.1,17.7-1.3,35.5-0.6,53.3c0.2,5,0.5,10.1,0.8,15.1c0.1,0.8,1.2,0.8,1.3,0c0.1-1.4,0.1-2.8,0.2-4.2
				c0-0.8-1.2-0.8-1.3,0c-0.1,1.4-0.1,2.8-0.2,4.2c0.4,0,0.8,0,1.3,0c-1.2-17.7-1.6-35.5-1-53.3c0.2-5,0.4-10.1,0.7-15.1
				C403.9,238.3,402.7,238.3,402.6,239.1L402.6,239.1z"/>
		</g>
	</g>
	<g class="st2">
		<g>
			<path d="M402.1,238.9c0.8,0,0.8-1.3,0-1.3C401.2,237.6,401.2,238.9,402.1,238.9L402.1,238.9z"/>
		</g>
	</g>
	<g class="st2">
		<g>
			<path d="M406.1,312.4c17.3-0.5,34.5-1.4,51.7-2.7c4.9-0.3,9.7-0.7,14.6-1.1c0.7-0.1,0.9-1,0.2-1.2c-14.8-4.9-30.3-0.1-45.3,1.6
				c-4.3,0.5-8.7,0.7-13.1,0.4c0,0.4,0,0.8,0,1.3c20.4-2.7,41.2-2,61.4,2.1c0.8,0.2,1.1-1,0.3-1.2c-15.8-3.2-31.9-4.3-48-3.4
				c-4.6,0.3-9.2,0.7-13.7,1.3c-0.8,0.1-0.8,1.2,0,1.3c15.3,1,30.1-4.5,45.4-4.2c4.3,0.1,8.5,0.8,12.6,2.1c0.1-0.4,0.1-0.8,0.2-1.2
				c-17.2,1.4-34.4,2.5-51.7,3.3c-4.9,0.2-9.7,0.4-14.6,0.5C405.3,311.1,405.3,312.4,406.1,312.4L406.1,312.4z"/>
		</g>
	</g>
	<g class="st2">
		<g>
			<path d="M471.3,235.8c-0.7,20.4-0.8,40.8-0.4,61.2c0.1,5.8,0.3,11.6,0.6,17.4c0,0.8,1.3,0.8,1.3,0c-0.8-20.4-1-40.8-0.7-61.2
				c0.1-5.8,0.3-11.6,0.5-17.4C472.6,235,471.4,235,471.3,235.8L471.3,235.8z"/>
		</g>
	</g>
	<g class="st2">
		<g>
			<path d="M406.1,240.1c18.8-0.3,37.5-0.8,56.3-1.5c5.3-0.2,10.6-0.5,15.9-0.7c0.8,0,0.8-1.3,0-1.3c-18.8,0.9-37.5,1.6-56.3,2
				c-5.3,0.1-10.6,0.2-16,0.3C405.3,238.9,405.3,240.1,406.1,240.1L406.1,240.1z"/>
		</g>
	</g>
	<g class="st2">
		<g>
			<path d="M307.3,9.5c0,17.3,0.6,34.6,1.9,51.9c0.4,4.9,0.8,9.7,1.3,14.6c0.1,0.8,1.3,0.8,1.3,0c-0.2-2.6-0.5-5.2-0.7-7.9
				c-0.1-0.8-1.3-0.8-1.3,0c0.2,2.6,0.5,5.2,0.7,7.9c0.4,0,0.8,0,1.3,0c-1.7-17.2-2.7-34.5-3-51.8c-0.1-4.9-0.1-9.8-0.1-14.7
				C308.6,8.6,307.3,8.6,307.3,9.5L307.3,9.5z"/>
		</g>
	</g>
	<g class="st2">
		<g>
			<path d="M307.6,12.2c0.6-0.7,1.3-1.4,1.9-2.1c-0.4-0.1-0.7-0.3-1.1-0.4c-1.4,18.3-1.3,36.6,0.3,54.9c0.5,5.2,1,10.4,1.7,15.6
				c0.1,0.8,1.4,0.8,1.3,0c-2.4-18.2-3.4-36.5-2.8-54.8c0.2-5.2,0.4-10.5,0.8-15.7c0-0.5-0.7-0.8-1.1-0.4c-0.6,0.7-1.3,1.4-1.9,2.1
				C306.2,11.9,307.1,12.8,307.6,12.2L307.6,12.2z"/>
		</g>
	</g>
	<g class="st2">
		<g>
			<path d="M317,78c20.2-0.4,40.4-1.5,60.6-3.2c5.8-0.5,11.6-1,17.3-1.6c0.8-0.1,0.8-1.3,0-1.3c-20.1,2.1-40.3,3.5-60.5,4.3
				c-5.8,0.2-11.6,0.4-17.4,0.5C316.2,76.8,316.2,78,317,78L317,78z"/>
		</g>
	</g>
	<g class="st2">
		<g>
			<path d="M380.6,5.4c-1,18.9-1.1,37.8-0.3,56.7c0.2,5.4,0.6,10.7,1,16.1c0.1,0.8,1.3,0.8,1.3,0c-0.2-16.9-0.4-33.8-0.5-50.7
				c-0.1-4.8-0.1-9.6-0.2-14.4c0-0.8-1.2-0.8-1.3,0c-0.2,21-0.4,42-0.7,63c0,0.8,1.2,0.8,1.3,0c0.2-21,0.4-42,0.7-63
				c-0.4,0-0.8,0-1.3,0c0.2,16.9,0.4,33.8,0.5,50.7c0.1,4.8,0.1,9.6,0.2,14.4c0.4,0,0.8,0,1.3,0c-1.4-18.9-1.9-37.8-1.4-56.7
				c0.1-5.4,0.4-10.7,0.7-16.1C381.9,4.6,380.6,4.6,380.6,5.4L380.6,5.4z"/>
		</g>
	</g>
	<g class="st2">
		<g>
			<path d="M302.5,10.5c20.5-1,41.1-2,61.6-2.9c0-0.4,0-0.8,0-1.3c-2.6,0.1-5.2,0.3-7.8,0.4c-0.8,0-0.8,1.3,0,1.3
				c2.6-0.1,5.2-0.3,7.8-0.4c0.8,0,0.8-1.3,0-1.3c-20.5,1-41.1,2-61.6,2.9C301.7,9.3,301.7,10.5,302.5,10.5L302.5,10.5z"/>
		</g>
	</g>
	<g class="st2">
		<g>
			<path d="M299.3,10.8C317.1,8.9,335.1,8,353,8.2c5.1,0.1,10.2,0.2,15.3,0.4c0.8,0,0.8-1.2,0-1.3c-17.9-0.8-35.9-0.5-53.8,0.8
				c-5.1,0.4-10.2,0.8-15.2,1.4C298.5,9.6,298.5,10.9,299.3,10.8L299.3,10.8z"/>
		</g>
	</g>
	<g class="st2">
		<g>
			<path d="M73.5,97.8c0,17,0.1,34.1,0.1,51.1c0,4.9,0,9.8,0,14.7c0,0.8,1.3,0.8,1.3,0c0-17-0.1-34.1-0.1-51.1c0-4.9,0-9.8,0-14.7
				C74.8,97,73.5,97,73.5,97.8L73.5,97.8z"/>
		</g>
	</g>
	<g class="st2">
		<g>
			<path d="M76.9,93.7c-1.4,19.4-2.3,38.8-2.9,58.2c-0.2,5.5-0.3,11-0.4,16.4c0,0.8,1.2,0.8,1.3,0c0.3-19.4,1-38.9,2.1-58.3
				c0.3-5.5,0.7-10.9,1.1-16.4C78.2,92.9,77,92.9,76.9,93.7L76.9,93.7z"/>
		</g>
	</g>
	<g class="st2">
		<g>
			<path d="M0.6,98.5C18.7,97.2,37,97,55.1,98c5.1,0.3,10.2,0.6,15.3,1.1c0.5,0,0.8-0.6,0.5-0.9c-1.2-1.9-3.5-2.5-5.6-1.6
				c-0.7,0.3-0.1,1.4,0.6,1.1c1.4-0.7,3-0.2,3.8,1.1c0.2-0.3,0.4-0.6,0.5-0.9c-18.1-1.6-36.3-2.1-54.5-1.4
				C10.6,96.7,5.5,97,0.3,97.3C-0.2,97.3-0.2,98.5,0.6,98.5L0.6,98.5z"/>
		</g>
	</g>
	<g class="st2">
		<g>
			<path d="M38.5,99.1c11.3-2,22.9-2.2,34.4-0.7c0.8,0.1,0.8-1.1,0-1.3c-11.5-1.5-23.2-1.3-34.7,0.8C37.4,98,37.8,99.3,38.5,99.1
				L38.5,99.1z"/>
		</g>
	</g>
	<g class="st2">
		<g>
			<path d="M3.1,168.2c17.5-0.1,35.1-0.7,52.6-1.8c5-0.3,9.9-0.7,14.8-1.1c0.8-0.1,0.8-1.3,0-1.3c-17.5,1.4-35,2.3-52.5,2.6
				c-5,0.1-9.9,0.2-14.9,0.2C2.3,166.9,2.3,168.2,3.1,168.2L3.1,168.2z"/>
		</g>
	</g>
	<g class="st2">
		<g>
			<path d="M1.9,97.8c1,17.7,1.9,35.4,2.9,53.1c0.3,5.1,0.5,10.1,0.8,15.2c0.4-0.1,0.8-0.1,1.2-0.2c-0.2-1.1-0.5-2.2-0.7-3.4
				c-0.2-0.8-1.4-0.5-1.2,0.3c0.2,1.1,0.5,2.2,0.7,3.4c0.1,0.7,1.3,0.5,1.2-0.2c-1-17.7-1.9-35.4-2.9-53.1
				c-0.3-5.1-0.5-10.1-0.8-15.2C3.1,97,1.8,97,1.9,97.8L1.9,97.8z"/>
		</g>
	</g>
	<g class="st2">
		<g>
			<path d="M3.6,95.4c-0.9,18.5-1.5,37-1.7,55.6c-0.1,5.3-0.1,10.6-0.1,15.9c0,0.8,1.3,0.8,1.3,0c0-18.5,0.3-37.1,1-55.6
				c0.2-5.3,0.4-10.6,0.7-15.9C4.9,94.6,3.7,94.6,3.6,95.4L3.6,95.4z"/>
		</g>
	</g>
	<g class="st2">
		<g>
			<path d="M90.8,159.6c0.3,8.6,0.6,17.1,0.9,25.7c0,0.8,1.3,0.8,1.3,0c-0.3-8.6-0.6-17.1-0.9-25.7C92,158.8,90.8,158.8,90.8,159.6
				L90.8,159.6z"/>
		</g>
	</g>
	<g class="st2">
		<g>
			<path d="M167.1,152.4c-0.5,9.9-0.9,19.8-1.4,29.7c0,0.8,1.2,0.8,1.3,0c0.5-9.9,0.9-19.8,1.4-29.7
				C168.4,151.6,167.1,151.6,167.1,152.4L167.1,152.4z"/>
		</g>
	</g>
	<g class="st2">
		<g>
			<path d="M167.6,165c0.8,0,0.8-1.3,0-1.3C166.8,163.8,166.8,165,167.6,165L167.6,165z"/>
		</g>
	</g>
	<g class="st2">
		<g>
			<path d="M305.8,94.4c-1.1,6-1,12.1,0.2,18c0.2,0.8,1.4,0.5,1.2-0.3c-1.2-5.7-1.3-11.6-0.2-17.3C307.1,93.9,305.9,93.6,305.8,94.4
				L305.8,94.4z"/>
		</g>
	</g>
	<g class="st2">
		<g>
			<path d="M304.1,98.4c3.1,0.1,6.1-0.4,9-1.5c0.8-0.3,0.4-1.5-0.3-1.2c-2.8,1-5.7,1.5-8.7,1.4C303.3,97.1,303.3,98.3,304.1,98.4
				L304.1,98.4z"/>
		</g>
	</g>
	<g class="st2">
		<g>
			<path d="M378.9,161.2c0.3,8,0.6,16.1,0.9,24.1c0,0.8,1.3,0.8,1.3,0c-0.3-8-0.6-16.1-0.9-24.1
				C380.2,160.4,378.9,160.4,378.9,161.2L378.9,161.2z"/>
		</g>
	</g>
	<g class="st2">
		<g>
			<path d="M374.6,160.4c1.2,18.2,1,36.6-0.6,54.8c-0.5,5.2-1.1,10.5-1.8,15.7c-0.1,0.8,1.1,1.1,1.2,0.3c2.5-18.2,3.5-36.7,3.1-55.1
				c-0.1-5.2-0.3-10.5-0.7-15.7C375.8,159.6,374.5,159.5,374.6,160.4L374.6,160.4z"/>
		</g>
	</g>
	<g class="st2">
		<g>
			<path d="M169.2,103.2c16.9-0.4,33.7-0.1,50.6,0.8c0.8,0,0.8-1.2,0-1.3c-16.8-0.9-33.7-1.1-50.6-0.8
				C168.4,102,168.4,103.3,169.2,103.2L169.2,103.2z"/>
		</g>
	</g>
	<g class="st2">
		<g>
			<path d="M302.8,90.5c0.3,16.9,0.6,33.7,0.9,50.6c0,0.8,1.3,0.8,1.3,0c-0.3-16.9-0.6-33.7-0.9-50.6
				C304,89.7,302.8,89.7,302.8,90.5L302.8,90.5z"/>
		</g>
	</g>
	<g class="st2">
		<g>
			<path d="M94.6,152.4c0.1,21.1,0.1,42.1,0.2,63.2c0,6,0,11.9,0,17.9c0,0.8,1.3,0.8,1.3,0c-0.1-21.1-0.1-42.1-0.2-63.2
				c0-6,0-11.9,0-17.9C95.9,151.5,94.6,151.5,94.6,152.4L94.6,152.4z"/>
		</g>
	</g>
	<g class="st2">
		<g>
			<path d="M91.4,379.4c3.5,0.3,7,0.5,10.4,0.8c0.8,0.1,0.8-1.2,0-1.3c-3.5-0.3-7-0.5-10.4-0.8C90.6,378.1,90.6,379.3,91.4,379.4
				L91.4,379.4z"/>
		</g>
	</g>
	<g class="st2">
		<g>
			<path d="M85.1,384.2c17.4-3.3,35.1-5,52.8-4.9c0.8,0,0.8-1.2,0-1.3c-17.8-0.1-35.6,1.6-53.1,4.9C84,383.2,84.3,384.4,85.1,384.2
				L85.1,384.2z"/>
		</g>
	</g>
	<g class="st2">
		<g>
			<path d="M157.9,298.5c0.3,22.7,0.6,45.4,1,68.1c0.1,6.5,0.2,12.9,0.3,19.4c0,0.8,1.3,0.8,1.3,0c-0.3-22.7-0.6-45.4-1-68.1
				c-0.1-6.5-0.2-12.9-0.3-19.4C159.1,297.7,157.9,297.6,157.9,298.5L157.9,298.5z"/>
		</g>
	</g>
	<g class="st2">
		<g>
			<path d="M153.2,320.1c13-1.7,26.2-2.6,39.3-2.7c0.8,0,0.8-1.3,0-1.3c-13.1,0.1-26.3,1-39.3,2.7
				C152.4,319,152.4,320.2,153.2,320.1L153.2,320.1z"/>
		</g>
	</g>
	<g class="st2">
		<g>
			<path d="M237,300.9c1,19.6,2,39.2,3.1,58.8c0.3,5.5,0.6,11.1,0.9,16.6c0,0.8,1.3,0.8,1.3,0c-1-19.6-2-39.2-3.1-58.8
				c-0.3-5.5-0.6-11.1-0.9-16.6C238.2,300.1,236.9,300.1,237,300.9L237,300.9z"/>
		</g>
	</g>
	<g class="st2">
		<g>
			<path d="M241.5,382.1c20.9-0.7,41.7-1.4,62.6-2.1c5.9-0.2,11.8-0.4,17.7-0.6c0.8,0,0.8-1.3,0-1.3c-20.9,0.7-41.7,1.4-62.6,2.1
				c-5.9,0.2-11.8,0.4-17.7,0.6C240.7,380.9,240.7,382.1,241.5,382.1L241.5,382.1z"/>
		</g>
	</g>
	<g class="st2">
		<g>
			<path d="M378.4,323.4c-1.7,16-2.6,32.1-2.7,48.1c0,0.8,1.2,0.8,1.3,0c0.1-16.1,1-32.2,2.7-48.1
				C379.7,322.6,378.5,322.6,378.4,323.4L378.4,323.4z"/>
		</g>
	</g>
	<g class="st2">
		<g>
			<path d="M407.8,243.9c-0.8,14.7-1.1,29.4-0.8,44.2c0,0.8,1.3,0.8,1.3,0c-0.3-14.7-0.1-29.5,0.8-44.2
				C409.1,243.1,407.9,243.1,407.8,243.9L407.8,243.9z"/>
		</g>
	</g>
	<g class="st2">
		<g>
			<path d="M419.9,240.4c16.6-3.2,33.5-4.7,50.4-4.5c0.8,0,0.8-1.2,0-1.3c-17-0.2-34,1.4-50.8,4.5
				C418.7,239.3,419.1,240.5,419.9,240.4L419.9,240.4z"/>
		</g>
	</g>
	<g class="st2">
		<g>
			<path d="M398,311.8c9.4-0.4,18.8-1.2,28.1-2.2c0.8-0.1,0.8-1.3,0-1.3c-9.3,1.1-18.7,1.8-28.1,2.2
				C397.2,310.6,397.2,311.9,398,311.8L398,311.8z"/>
		</g>
	</g>
	<g class="st2">
		<g>
			<path d="M404.5,254.9c0.8,0,0.8-1.3,0-1.3C403.7,253.7,403.7,254.9,404.5,254.9L404.5,254.9z"/>
		</g>
	</g>
	<g class="st2">
		<g>
			<path d="M376.9,0.6c1.1,17.7,1.8,35.4,2,53.1c0.1,5.1,0.1,10.1,0.1,15.2c0,0.8,1.2,0.8,1.3,0c0.1-17.7-0.4-35.4-1.2-53.1
				c-0.3-5.1-0.5-10.1-0.9-15.2C378.1-0.2,376.8-0.2,376.9,0.6L376.9,0.6z"/>
		</g>
	</g>
	<g class="st2">
		<g>
			<path d="M298.7,79.9c18.2-5,37.2-6.9,56-5.6c0.8,0.1,0.8-1.2,0-1.3c-18.9-1.3-38,0.6-56.4,5.6C297.6,78.9,297.9,80.1,298.7,79.9
				L298.7,79.9z"/>
		</g>
	</g>
	<g class="st2">
		<g>
			<path d="M72.1,89.7c0.2,22.3,0,44.6-0.4,66.9c-0.1,6.3-0.3,12.6-0.4,19c0,0.8,1.2,0.8,1.3,0c0.6-22.3,0.9-44.6,0.9-66.9
				c0-6.3,0-12.7-0.1-19C73.3,88.9,72.1,88.9,72.1,89.7L72.1,89.7z"/>
		</g>
	</g>
	<g class="st2">
		<g>
			<path d="M158.8,402.7c10.4-1.2,20.9-1.3,31.3-0.3c0.8,0.1,0.8-1.2,0-1.3c-10.4-1-20.9-0.9-31.3,0.3
				C158,401.5,158,402.8,158.8,402.7L158.8,402.7z"/>
		</g>
	</g>
	<g class="st2">
		<g>
			<path d="M241.9,399.6c-0.3,16.1-0.6,32.1-1,48.2c0,0.8,1.2,0.8,1.3,0c0.3-16.1,0.6-32.1,1-48.2
				C243.1,398.8,241.9,398.8,241.9,399.6L241.9,399.6z"/>
		</g>
	</g>
</g>
<g id="Layer_2_copy">
	<g>
		<g>
			<path class="st3" d="M381.1,313.7c0.2,19.6,0.1,39.2-0.3,58.8c-0.1,5.5-0.3,11.1-0.5,16.6c0,0.8,1.2,0.8,1.3,0
				c0.6-19.6,0.9-39.2,0.9-58.8c0-5.5,0-11.1-0.1-16.6C382.3,312.9,381.1,312.9,381.1,313.7L381.1,313.7z"/>
		</g>
	</g>
	<g>
		<g>
			<path class="st3" d="M381.1,309.7c0.3,17.7,0.4,35.4,0.3,53.1c0,5.1-0.1,10.1-0.1,15.2c0,0.8,1.2,0.8,1.3,0
				c0.2-17.7,0.2-35.4,0-53.1c-0.1-5.1-0.1-10.1-0.2-15.2C382.3,308.9,381.1,308.9,381.1,309.7L381.1,309.7z"/>
		</g>
	</g>
	<g>
		<g>
			<path class="st3" d="M245.7,385.8c5.8-0.8,11.7-1,17.5-0.8c0.8,0,0.8-1.2,0-1.3c-6-0.3-11.9,0-17.8,0.8
				C244.5,384.7,244.9,385.9,245.7,385.8L245.7,385.8z"/>
		</g>
	</g>
	<g>
		<g>
			<path class="st3" d="M241.5,388.4c28.8-0.2,57.5-0.6,86.3-1.2c8.1-0.2,16.3-0.4,24.4-0.6c0.8,0,0.8-1.3,0-1.3
				c-28.8,0.7-57.5,1.3-86.3,1.6c-8.1,0.1-16.3,0.2-24.4,0.2C240.7,387.1,240.7,388.4,241.5,388.4L241.5,388.4z"/>
		</g>
	</g>
	<g>
		<g>
			<path class="st3" d="M248.7,385.3c17.7-1.8,35.4-3.1,53.1-3.9c17.7-0.9,35.5-1.3,53.2-1.2c10.1,0,20.1,0.2,30.2,0.5
				c0.8,0,0.8-1.2,0-1.3c-17.7-0.5-35.5-0.6-53.2-0.3c-17.7,0.4-35.5,1.2-53.2,2.4c-10,0.7-20.1,1.6-30.1,2.6
				C247.9,384.1,247.9,385.3,248.7,385.3L248.7,385.3z"/>
		</g>
	</g>
	<g>
		<g>
			<path class="st3" d="M305.7,316c17.3-0.1,34.6-0.3,52-0.7c4.9-0.1,9.8-0.2,14.7-0.4c0.8,0,0.8-1.3,0-1.3
				c-17.3,0.5-34.6,0.8-52,0.9c-4.9,0-9.8,0.1-14.7,0.1C304.9,314.8,304.9,316,305.7,316L305.7,316z"/>
		</g>
	</g>
	<g>
		<g>
			<path class="st3" d="M320.2,313.5c18.3-1.1,36.8-1.2,55.1-0.1c5.2,0.3,10.4,0.7,15.5,1.2c0.8,0.1,0.8-1.2,0-1.3
				c-18.3-1.7-36.7-2.3-55.1-1.8c-5.2,0.1-10.4,0.4-15.6,0.7C319.4,312.3,319.4,313.5,320.2,313.5L320.2,313.5z"/>
		</g>
	</g>
	<g>
		<g>
			<path class="st3" d="M307.8,242.3c-1.2,21.1-1.4,42.3-0.5,63.4c0,0.8,1.3,0.8,1.3,0c-0.8-21.1-0.7-42.3,0.5-63.4
				C309.1,241.5,307.8,241.5,307.8,242.3L307.8,242.3z"/>
		</g>
	</g>
	<g>
		<g>
			<path class="st3" d="M310.8,239.1c-1.7,19.3-2.5,38.7-2.2,58.1c0.1,5.5,0.3,11,0.5,16.6c0,0.8,1.3,0.8,1.3,0
				c-0.9-19.4-0.8-38.8,0.4-58.1c0.3-5.5,0.8-11,1.3-16.5C312.1,238.3,310.9,238.3,310.8,239.1L310.8,239.1z"/>
		</g>
	</g>
	<g>
		<g>
			<path class="st3" d="M310.8,242.5c19.6-3,39.6-3.5,59.4-1.8c5.7,0.5,11.4,1.2,17,2.1c0.5,0.1,1.2-0.6,0.6-1
				c-2.1-1.6-4.1-3.2-6.2-4.8c-0.6-0.5-1.5,0.4-0.9,0.9c2.1,1.6,4.1,3.2,6.2,4.8c0.2-0.3,0.4-0.7,0.6-1c-19.9-3.2-40.1-4-60.2-2.4
				c-5.6,0.5-11.3,1.1-16.9,2C309.6,241.4,310,242.6,310.8,242.5L310.8,242.5z"/>
		</g>
	</g>
	<g>
		<g>
			<path class="st3" d="M347.5,235.5c13.4,0.3,26.8,1.3,40.1,2.9c0.8,0.1,0.8-1.2,0-1.3c-13.3-1.7-26.7-2.7-40.1-2.9
				C346.7,234.2,346.7,235.5,347.5,235.5L347.5,235.5z"/>
		</g>
	</g>
	<g>
		<g>
			<path class="st3" d="M379.1,167.7c2.5,10,1,20.6,0.8,30.8c-0.2,10.5-0.1,20.9,0.5,31.4c0.3,5.9,0.7,11.9,1.3,17.8
				c0.1,0.8,1.3,0.8,1.3,0c-1.2-16-1.7-32-1.5-48c0-0.8-1.2-0.8-1.3,0c-0.2,16,0.3,32,1.5,48c0.4,0,0.8,0,1.3,0
				c-1-10.6-1.6-21.2-1.8-31.9c-0.2-10.5,0.2-21,0.5-31.4c0.2-5.7,0-11.4-1.3-17C380.1,166.6,378.9,167,379.1,167.7L379.1,167.7z"/>
		</g>
	</g>
	<g>
		<g>
			<path class="st3" d="M374.7,166.6c-8.8-0.5-17.7-0.5-26.6-0.2c-8.7,0.3-17.3,1.3-25.9,1.9c-4.8,0.4-9.7,0.4-14.5-0.8
				c-0.1,0.4-0.1,0.8-0.2,1.2c19.4,0.4,38.8,0.8,58.1,1.1c0.8,0,0.8-1.2,0-1.3c-14.4-0.8-28.8-0.3-43.2,1.4c-0.8,0.1-0.8,1.3,0,1.3
				c14.3-1.7,28.8-2.1,43.2-1.4c0-0.4,0-0.8,0-1.3c-19.4-0.4-38.8-0.8-58.1-1.1c-0.7,0-0.9,1.1-0.2,1.2c8.3,2,16.9,0.6,25.2-0.1
				c8.9-0.8,17.8-1.1,26.8-1.1c5.1,0,10.2,0.2,15.2,0.4C375.5,167.9,375.5,166.6,374.7,166.6L374.7,166.6z"/>
		</g>
	</g>
	<g>
		<g>
			<path class="st3" d="M307.1,97c0.1,19.7,0.3,39.4,0.4,59.2c0,5.6,0.1,11.2,0.1,16.7c0,0.8,1.2,0.8,1.3,0c1.6-17.6,2-35.3,1.1-53
				c-0.3-5-0.6-10-1.1-15c-0.1-0.8-1.3-0.8-1.3,0c1.6,17.6,2,35.3,1.1,53c-0.3,5-0.6,10-1.1,15c0.4,0,0.8,0,1.3,0
				c-0.1-19.7-0.3-39.4-0.4-59.2c0-5.6-0.1-11.2-0.1-16.7C308.4,96.2,307.1,96.1,307.1,97L307.1,97z"/>
		</g>
	</g>
	<g>
		<g>
			<path class="st3" d="M182.1,100.8c0.8,0,0.8-1.3,0-1.3S181.3,100.8,182.1,100.8L182.1,100.8z"/>
		</g>
	</g>
	<g>
		<g>
			<path class="st3" d="M160.4,98.6c-2.6,0.1-5-0.8-6.9-2.6c-0.1,0.3-0.2,0.7-0.3,1c24.5-7.8,50.4-1.2,75.3,1
				c1.7,0.2,3.4,0.3,5.1,0.4c1.6,0.1,3.5,0.4,5.2,0.2c0.8-0.1,1.6-0.6,1.7-1.5c0.1-0.9-0.4-1.5-1.3-1.6c-0.8-0.1-0.8,1.2,0,1.3
				c0.3,0-0.6,0.6-0.9,0.7c-0.3,0-0.7,0-1,0c-0.6,0-1.2-0.1-1.9-0.1c-1.5-0.1-2.9-0.2-4.4-0.3c-2.9-0.2-5.8-0.5-8.6-0.8
				c-5.8-0.6-11.5-1.4-17.3-2.1c-11.2-1.4-22.5-2.5-33.7-1.7c-6.3,0.5-12.5,1.6-18.6,3.5c-0.4,0.1-0.6,0.7-0.3,1
				c2.1,2,4.9,3.1,7.8,3C161.2,99.8,161.2,98.6,160.4,98.6L160.4,98.6z"/>
		</g>
	</g>
	<g>
		<g>
			<path class="st3" d="M176.5,95.5c17,0,34,0.1,51,0.3c17,0.3,34,0.7,51,1.2c9.6,0.3,19.2,0.7,28.8,1.1c0.8,0,0.8-1.2,0-1.3
				c-17-0.7-34-1.3-51-1.7c-17-0.4-34-0.7-51-0.8c-9.6-0.1-19.2-0.1-28.9-0.1C175.7,94.2,175.7,95.5,176.5,95.5L176.5,95.5z"/>
		</g>
	</g>
	<g>
		<g>
			<path class="st3" d="M169.8,84.9c-2,18.8-2.6,37.8-1.6,56.7c0.3,5.4,0.7,10.8,1.2,16.2c0.4-0.1,0.7-0.3,1.1-0.4
				c-0.6-0.7-0.8-1.5-0.6-2.4c0.2-0.8-1-1.1-1.2-0.3c-0.3,1.3,0,2.5,0.9,3.6c0.3,0.4,1.1,0.1,1.1-0.4c-1.9-18.8-2.2-37.8-1-56.7
				c0.3-5.4,0.8-10.8,1.4-16.2C171.1,84.1,169.8,84.1,169.8,84.9L169.8,84.9z"/>
		</g>
	</g>
	<g>
		<g>
			<path class="st3" d="M166.3,94.6c-0.5,17.7-0.4,35.4,0.2,53c0.2,5.1,0.4,10.1,0.7,15.2c0,0.8,1.3,0.8,1.3,0
				c-1-17.7-1.4-35.3-1.2-53c0.1-5.1,0.2-10.1,0.3-15.2C167.6,93.7,166.3,93.7,166.3,94.6L166.3,94.6z"/>
		</g>
	</g>
	<g>
		<g>
			<path class="st3" d="M92.9,164.3c18.7,3.3,37.5,5.4,56.4,6.2c5.4,0.2,10.8,0.4,16.2,0.4c0.5,0,0.8-0.5,0.5-0.9
				c-0.7-1.3-1.9-1.9-3.3-2.1c-0.8-0.1-0.8,1.2,0,1.3c1,0.1,1.7,0.6,2.2,1.5c0.2-0.3,0.4-0.6,0.5-0.9c-18.9-0.1-37.8-1.4-56.5-4
				c-5.3-0.7-10.6-1.6-15.8-2.5C92.5,162.9,92.1,164.2,92.9,164.3L92.9,164.3z"/>
		</g>
	</g>
	<g>
		<g>
			<path class="st3" d="M106.6,169.1c20.1-0.4,40.2-0.5,60.3-0.3c5.6,0.1,11.3,0.2,16.9,0.3c0.6,0,0.9-0.9,0.3-1.2
				c-0.6-0.3-1.2-0.6-1.8-0.9c-0.7-0.4-1.4,0.7-0.6,1.1c0.6,0.3,1.2,0.6,1.8,0.9c0.1-0.4,0.2-0.8,0.3-1.2
				c-20.1-0.4-40.2-0.5-60.3-0.3c-5.6,0.1-11.3,0.2-16.9,0.3C105.8,167.9,105.8,169.1,106.6,169.1L106.6,169.1z"/>
		</g>
	</g>
	<g>
		<g>
			<path class="st3" d="M93.1,179.6c0.4,14.7,0.2,29.5-0.6,44.2c0,0.8,1.2,0.8,1.3,0c0.8-14.7,1-29.4,0.6-44.2
				C94.3,178.8,93.1,178.8,93.1,179.6L93.1,179.6z"/>
		</g>
	</g>
	<g>
		<g>
			<path class="st3" d="M90.4,162c-0.7,24.4-1,48.8-0.9,73.3c0.1,24.4,0.6,48.8,1.6,73.3c0.5,13.8,1.2,27.6,2,41.3
				c0,0.8,1.3,0.8,1.3,0c-1.4-24.4-2.4-48.8-3-73.2s-0.7-48.8-0.5-73.3c0.1-13.8,0.4-27.6,0.8-41.4C91.7,161.2,90.4,161.2,90.4,162
				L90.4,162z"/>
		</g>
	</g>
	<g>
		<g>
			<path class="st3" d="M92.4,243.9c-0.5,18.9-0.8,37.8-0.9,56.7c-0.2,18.9-0.2,37.8,0,56.7c0.1,10.7,0.2,21.3,0.4,32
				c0,0.8,1.3,0.8,1.3,0c-0.3-18.9-0.5-37.8-0.5-56.7c0-18.9,0.1-37.8,0.4-56.7c0.2-10.7,0.4-21.3,0.6-32
				C93.7,243.1,92.4,243.1,92.4,243.9L92.4,243.9z"/>
		</g>
	</g>
	<g>
		<g>
			<path class="st3" d="M89.8,383.4c17.6-1.1,35.2-1.8,52.8-2.1c5-0.1,10.1-0.2,15.1-0.2c0.8,0,0.8-1.2,0-1.3
				c-19.3-1.9-38.8-2-58.1-0.3c-0.8,0.1-0.8,1.3,0,1.3c20.8-0.3,41.7,0.3,62.5,1.9c0.8,0.1,0.8-1.2,0-1.3
				c-20.8-1.5-41.6-2.2-62.5-1.9c0,0.4,0,0.8,0,1.3c19.3-1.7,38.8-1.6,58.1,0.3c0-0.4,0-0.8,0-1.3c-17.6,0.1-35.2,0.6-52.8,1.5
				c-5,0.3-10.1,0.5-15.1,0.8C89,382.2,89,383.5,89.8,383.4L89.8,383.4z"/>
		</g>
	</g>
	<g>
		<g>
			<path class="st3" d="M162.9,308.9c0.1,18.1,0.3,36.2,0.7,54.2c0.1,5.1,0.2,10.3,0.3,15.4c0.4,0,0.8,0,1.3,0
				c-0.3-2.3-0.1-4.6,0.6-6.9c0.2-0.8-1-1.1-1.2-0.3c-0.7,2.4-0.9,4.8-0.6,7.2c0.1,0.8,1.3,0.8,1.3,0c-0.4-18.1-0.8-36.1-0.9-54.2
				c-0.1-5.1-0.1-10.3-0.1-15.4C164.2,308.1,162.9,308.1,162.9,308.9L162.9,308.9z"/>
		</g>
	</g>
	<g>
		<g>
			<path class="st3" d="M163.5,314.5c0.6,18.8,0.1,37.6-1.6,56.3c-0.5,5.3-1.1,10.6-1.8,15.9c-0.1,0.8,1.1,0.8,1.3,0
				c2.4-18.6,3.6-37.4,3.6-56.2c0-5.3-0.1-10.7-0.3-16C164.7,313.7,163.5,313.7,163.5,314.5L163.5,314.5z"/>
		</g>
	</g>
	<g>
		<g>
			<path class="st3" d="M162.8,312.2c20.5-1.2,41.1-1,61.6,0.6c0.7,0.1,0.9-1.1,0.2-1.2c-4-0.8-8-0.8-12-0.7
				c-4.2,0.1-8.4,0.3-12.5,0.4c-8.4,0.3-16.8,0.6-25.2,0.9c0,0.4,0,0.8,0,1.3c20.8-2.1,41.7-1.9,62.4,0.6c0.8,0.1,0.8-1.2,0-1.3
				c-20.7-2.5-41.7-2.7-62.4-0.6c-0.8,0.1-0.8,1.3,0,1.3c8.2-0.3,16.4-0.6,24.7-0.9c4.1-0.1,8.2-0.3,12.3-0.4s8.3-0.2,12.4,0.6
				c0.1-0.4,0.1-0.8,0.2-1.2c-20.5-1.6-41.1-1.8-61.6-0.6C162,311,162,312.3,162.8,312.2L162.8,312.2z"/>
		</g>
	</g>
	<g>
		<g>
			<path class="st3" d="M237.7,306.5c0.4,22.7,0.8,45.4,1.3,68.1c0.1,6.4,0.2,12.8,0.4,19.2c0.4,0,0.8,0,1.3,0
				c-0.2-2.1-0.4-4.1-0.7-6.2c-0.1-0.8-1.3-0.8-1.3,0c0.2,2.1,0.4,4.1,0.7,6.2c0.1,0.8,1.3,0.8,1.3,0c-0.4-22.7-0.8-45.4-1.3-68.1
				c-0.1-6.4-0.2-12.8-0.4-19.2C238.9,305.7,237.7,305.7,237.7,306.5L237.7,306.5z"/>
		</g>
	</g>
	<g>
		<g>
			<path class="st3" d="M165.4,403.6c-0.2,18.5,0,37,0.8,55.5c0.2,5.2,0.5,10.5,0.8,15.7c0,0.8,1.2,0.8,1.3,0
				c0.2-2.2-0.1-4.3-0.8-6.3c-0.3-0.8-1.5-0.4-1.2,0.3c0.7,2,0.9,3.9,0.7,6c0.4,0,0.8,0,1.3,0c-1.1-18.5-1.6-37-1.6-55.5
				c0-5.2,0-10.5,0.1-15.7C166.7,402.8,165.4,402.8,165.4,403.6L165.4,403.6z"/>
		</g>
	</g>
	<g>
		<g>
			<path class="st3" d="M160.5,404.1c20.8-6.3,42.6-2.1,63.7-0.5c6,0.5,12.1,0.7,18.1,0.5c0.8,0,0.8-1.3,0-1.3
				c-21.6,0.7-43-4.7-64.7-3.2c-5.9,0.4-11.8,1.4-17.5,3.1C159.4,403.1,159.7,404.3,160.5,404.1L160.5,404.1z"/>
		</g>
	</g>
	<g>
		<g>
			<path class="st3" d="M241.5,406c-2.6,19.7-3.4,39.6-2.5,59.4c0.3,5.6,0.7,11.3,1.2,16.9c0.1,0.8,1.3,0.8,1.3,0
				c-1.9-19.8-2-39.7-0.5-59.5c0.5-5.6,1-11.2,1.8-16.8C242.8,405.2,241.6,405.2,241.5,406L241.5,406z"/>
		</g>
	</g>
	<g>
		<g>
			<path class="st3" d="M160.4,474.1c20.9-2.7,41.8,1.3,62.7-0.6c5.7-0.5,11.4-1.5,16.9-3.1c0.8-0.2,0.4-1.4-0.3-1.2
				c-20.1,5.9-41.1,2.7-61.7,2.7c-5.9,0-11.8,0.2-17.6,1C159.6,473,159.6,474.3,160.4,474.1L160.4,474.1z"/>
		</g>
	</g>
	<g>
		<g>
			<path class="st3" d="M183.7,473.8c17.5-1.4,35-1.7,52.6-1c5,0.2,9.9,0.5,14.9,0.9c0.8,0.1,0.8-1.2,0-1.3
				c-17.5-1.4-35-1.7-52.6-0.9c-5,0.2-9.9,0.5-14.9,0.9C182.9,472.6,182.9,473.9,183.7,473.8L183.7,473.8z"/>
		</g>
	</g>
	<g>
		<g>
			<path class="st3" d="M240.1,398.8c-1.7,20.6-2.2,41.2-1.5,61.8c0,0.8,1.3,0.8,1.3,0c-0.7-20.6-0.2-41.3,1.5-61.8
				C241.4,398,240.2,398,240.1,398.8L240.1,398.8z"/>
		</g>
	</g>
	<g>
		<g>
			<path class="st3" d="M166.8,398.8c1.6,18.3,2.6,36.7,3.2,55.1c0.2,5.2,0.3,10.4,0.3,15.6c0,0.8,1.3,0.8,1.3,0
				c-0.2-18.4-1-36.8-2.3-55.2c-0.4-5.2-0.8-10.4-1.2-15.6C168,398,166.8,398,166.8,398.8L166.8,398.8z"/>
		</g>
	</g>
	<g>
		<g>
			<path class="st3" d="M402.6,239.1c-1.1,17.7-1.3,35.5-0.6,53.3c0.2,5,0.5,10.1,0.8,15.1c0.1,0.8,1.2,0.8,1.3,0
				c0.1-1.4,0.1-2.8,0.2-4.2c0-0.8-1.2-0.8-1.3,0c-0.1,1.4-0.1,2.8-0.2,4.2c0.4,0,0.8,0,1.3,0c-1.2-17.7-1.6-35.5-1-53.3
				c0.2-5,0.4-10.1,0.7-15.1C403.9,238.3,402.7,238.3,402.6,239.1L402.6,239.1z"/>
		</g>
	</g>
	<g>
		<g>
			<path class="st3" d="M402.1,238.9c0.8,0,0.8-1.3,0-1.3C401.2,237.6,401.2,238.9,402.1,238.9L402.1,238.9z"/>
		</g>
	</g>
	<g>
		<g>
			<path class="st3" d="M406.1,312.4c17.3-0.5,34.5-1.4,51.7-2.7c4.9-0.3,9.7-0.7,14.6-1.1c0.7-0.1,0.9-1,0.2-1.2
				c-14.8-4.9-30.3-0.1-45.3,1.6c-4.3,0.5-8.7,0.7-13.1,0.4c0,0.4,0,0.8,0,1.3c20.4-2.7,41.2-2,61.4,2.1c0.8,0.2,1.1-1,0.3-1.2
				c-15.8-3.2-31.9-4.3-48-3.4c-4.6,0.3-9.2,0.7-13.7,1.3c-0.8,0.1-0.8,1.2,0,1.3c15.3,1,30.1-4.5,45.4-4.2
				c4.3,0.1,8.5,0.8,12.6,2.1c0.1-0.4,0.1-0.8,0.2-1.2c-17.2,1.4-34.4,2.5-51.7,3.3c-4.9,0.2-9.7,0.4-14.6,0.5
				C405.3,311.1,405.3,312.4,406.1,312.4L406.1,312.4z"/>
		</g>
	</g>
	<g>
		<g>
			<path class="st3" d="M471.3,235.8c-0.7,20.4-0.8,40.8-0.4,61.2c0.1,5.8,0.3,11.6,0.6,17.4c0,0.8,1.3,0.8,1.3,0
				c-0.8-20.4-1-40.8-0.7-61.2c0.1-5.8,0.3-11.6,0.5-17.4C472.6,235,471.4,235,471.3,235.8L471.3,235.8z"/>
		</g>
	</g>
	<g>
		<g>
			<path class="st3" d="M406.1,240.1c18.8-0.3,37.5-0.8,56.3-1.5c5.3-0.2,10.6-0.5,15.9-0.7c0.8,0,0.8-1.3,0-1.3
				c-18.8,0.9-37.5,1.6-56.3,2c-5.3,0.1-10.6,0.2-16,0.3C405.3,238.9,405.3,240.1,406.1,240.1L406.1,240.1z"/>
		</g>
	</g>
	<g>
		<g>
			<path class="st3" d="M307.3,9.5c0,17.3,0.6,34.6,1.9,51.9c0.4,4.9,0.8,9.7,1.3,14.6c0.1,0.8,1.3,0.8,1.3,0
				c-0.2-2.6-0.5-5.2-0.7-7.9c-0.1-0.8-1.3-0.8-1.3,0c0.2,2.6,0.5,5.2,0.7,7.9c0.4,0,0.8,0,1.3,0c-1.7-17.2-2.7-34.5-3-51.8
				c-0.1-4.9-0.1-9.8-0.1-14.7C308.6,8.6,307.3,8.6,307.3,9.5L307.3,9.5z"/>
		</g>
	</g>
	<g>
		<g>
			<path class="st3" d="M307.6,12.2c0.6-0.7,1.3-1.4,1.9-2.1c-0.4-0.1-0.7-0.3-1.1-0.4c-1.4,18.3-1.3,36.6,0.3,54.9
				c0.5,5.2,1,10.4,1.7,15.6c0.1,0.8,1.4,0.8,1.3,0c-2.4-18.2-3.4-36.5-2.8-54.8c0.2-5.2,0.4-10.5,0.8-15.7c0-0.5-0.7-0.8-1.1-0.4
				c-0.6,0.7-1.3,1.4-1.9,2.1C306.2,11.9,307.1,12.8,307.6,12.2L307.6,12.2z"/>
		</g>
	</g>
	<g>
		<g>
			<path class="st3" d="M317,78c20.2-0.4,40.4-1.5,60.6-3.2c5.8-0.5,11.6-1,17.3-1.6c0.8-0.1,0.8-1.3,0-1.3
				c-20.1,2.1-40.3,3.5-60.5,4.3c-5.8,0.2-11.6,0.4-17.4,0.5C316.2,76.8,316.2,78,317,78L317,78z"/>
		</g>
	</g>
	<g>
		<g>
			<path class="st3" d="M380.6,5.4c-1,18.9-1.1,37.8-0.3,56.7c0.2,5.4,0.6,10.7,1,16.1c0.1,0.8,1.3,0.8,1.3,0
				c-0.2-16.9-0.4-33.8-0.5-50.7c-0.1-4.8-0.1-9.6-0.2-14.4c0-0.8-1.2-0.8-1.3,0c-0.2,21-0.4,42-0.7,63c0,0.8,1.2,0.8,1.3,0
				c0.2-21,0.4-42,0.7-63c-0.4,0-0.8,0-1.3,0c0.2,16.9,0.4,33.8,0.5,50.7c0.1,4.8,0.1,9.6,0.2,14.4c0.4,0,0.8,0,1.3,0
				c-1.4-18.9-1.9-37.8-1.4-56.7c0.1-5.4,0.4-10.7,0.7-16.1C381.9,4.6,380.6,4.6,380.6,5.4L380.6,5.4z"/>
		</g>
	</g>
	<g>
		<g>
			<path class="st3" d="M302.5,10.5c20.5-1,41.1-2,61.6-2.9c0-0.4,0-0.8,0-1.3c-2.6,0.1-5.2,0.3-7.8,0.4c-0.8,0-0.8,1.3,0,1.3
				c2.6-0.1,5.2-0.3,7.8-0.4c0.8,0,0.8-1.3,0-1.3c-20.5,1-41.1,2-61.6,2.9C301.7,9.3,301.7,10.5,302.5,10.5L302.5,10.5z"/>
		</g>
	</g>
	<g>
		<g>
			<path class="st3" d="M299.3,10.8C317.1,8.9,335.1,8,353,8.2c5.1,0.1,10.2,0.2,15.3,0.4c0.8,0,0.8-1.2,0-1.3
				c-17.9-0.8-35.9-0.5-53.8,0.8c-5.1,0.4-10.2,0.8-15.2,1.4C298.5,9.6,298.5,10.9,299.3,10.8L299.3,10.8z"/>
		</g>
	</g>
	<g>
		<g>
			<path class="st3" d="M73.5,97.8c0,17,0.1,34.1,0.1,51.1c0,4.9,0,9.8,0,14.7c0,0.8,1.3,0.8,1.3,0c0-17-0.1-34.1-0.1-51.1
				c0-4.9,0-9.8,0-14.7C74.8,97,73.5,97,73.5,97.8L73.5,97.8z"/>
		</g>
	</g>
	<g>
		<g>
			<path class="st3" d="M76.9,93.7c-1.4,19.4-2.3,38.8-2.9,58.2c-0.2,5.5-0.3,11-0.4,16.4c0,0.8,1.2,0.8,1.3,0
				c0.3-19.4,1-38.9,2.1-58.3c0.3-5.5,0.7-10.9,1.1-16.4C78.2,92.9,77,92.9,76.9,93.7L76.9,93.7z"/>
		</g>
	</g>
	<g>
		<g>
			<path class="st3" d="M0.6,98.5C18.7,97.2,37,97,55.1,98c5.1,0.3,10.2,0.6,15.3,1.1c0.5,0,0.8-0.6,0.5-0.9
				c-1.2-1.9-3.5-2.5-5.6-1.6c-0.7,0.3-0.1,1.4,0.6,1.1c1.4-0.7,3-0.2,3.8,1.1c0.2-0.3,0.4-0.6,0.5-0.9c-18.1-1.6-36.3-2.1-54.5-1.4
				C10.6,96.7,5.5,97,0.3,97.3C-0.2,97.3-0.2,98.5,0.6,98.5L0.6,98.5z"/>
		</g>
	</g>
	<g>
		<g>
			<path class="st3" d="M38.5,99.1c11.3-2,22.9-2.2,34.4-0.7c0.8,0.1,0.8-1.1,0-1.3c-11.5-1.5-23.2-1.3-34.7,0.8
				C37.4,98,37.8,99.3,38.5,99.1L38.5,99.1z"/>
		</g>
	</g>
	<g>
		<g>
			<path class="st3" d="M3.1,168.2c17.5-0.1,35.1-0.7,52.6-1.8c5-0.3,9.9-0.7,14.8-1.1c0.8-0.1,0.8-1.3,0-1.3
				c-17.5,1.4-35,2.3-52.5,2.6c-5,0.1-9.9,0.2-14.9,0.2C2.3,166.9,2.3,168.2,3.1,168.2L3.1,168.2z"/>
		</g>
	</g>
	<g>
		<g>
			<path class="st3" d="M1.9,97.8c1,17.7,1.9,35.4,2.9,53.1c0.3,5.1,0.5,10.1,0.8,15.2c0.4-0.1,0.8-0.1,1.2-0.2
				c-0.2-1.1-0.5-2.2-0.7-3.4c-0.2-0.8-1.4-0.5-1.2,0.3c0.2,1.1,0.5,2.2,0.7,3.4c0.1,0.7,1.3,0.5,1.2-0.2c-1-17.7-1.9-35.4-2.9-53.1
				c-0.3-5.1-0.5-10.1-0.8-15.2C3.1,97,1.8,97,1.9,97.8L1.9,97.8z"/>
		</g>
	</g>
	<g>
		<g>
			<path class="st3" d="M3.6,95.4c-0.9,18.5-1.5,37-1.7,55.6c-0.1,5.3-0.1,10.6-0.1,15.9c0,0.8,1.3,0.8,1.3,0
				c0-18.5,0.3-37.1,1-55.6c0.2-5.3,0.4-10.6,0.7-15.9C4.9,94.6,3.7,94.6,3.6,95.4L3.6,95.4z"/>
		</g>
	</g>
	<g>
		<g>
			<path class="st3" d="M90.8,159.6c0.3,8.6,0.6,17.1,0.9,25.7c0,0.8,1.3,0.8,1.3,0c-0.3-8.6-0.6-17.1-0.9-25.7
				C92,158.8,90.8,158.8,90.8,159.6L90.8,159.6z"/>
		</g>
	</g>
	<g>
		<g>
			<path class="st3" d="M167.1,152.4c-0.5,9.9-0.9,19.8-1.4,29.7c0,0.8,1.2,0.8,1.3,0c0.5-9.9,0.9-19.8,1.4-29.7
				C168.4,151.6,167.1,151.6,167.1,152.4L167.1,152.4z"/>
		</g>
	</g>
	<g>
		<g>
			<path class="st3" d="M167.6,165c0.8,0,0.8-1.3,0-1.3C166.8,163.8,166.8,165,167.6,165L167.6,165z"/>
		</g>
	</g>
	<g>
		<g>
			<path class="st3" d="M305.8,94.4c-1.1,6-1,12.1,0.2,18c0.2,0.8,1.4,0.5,1.2-0.3c-1.2-5.7-1.3-11.6-0.2-17.3
				C307.1,93.9,305.9,93.6,305.8,94.4L305.8,94.4z"/>
		</g>
	</g>
	<g>
		<g>
			<path class="st3" d="M304.1,98.4c3.1,0.1,6.1-0.4,9-1.5c0.8-0.3,0.4-1.5-0.3-1.2c-2.8,1-5.7,1.5-8.7,1.4
				C303.3,97.1,303.3,98.3,304.1,98.4L304.1,98.4z"/>
		</g>
	</g>
	<g>
		<g>
			<path class="st3" d="M378.9,161.2c0.3,8,0.6,16.1,0.9,24.1c0,0.8,1.3,0.8,1.3,0c-0.3-8-0.6-16.1-0.9-24.1
				C380.2,160.4,378.9,160.4,378.9,161.2L378.9,161.2z"/>
		</g>
	</g>
	<g>
		<g>
			<path class="st3" d="M374.6,160.4c1.2,18.2,1,36.6-0.6,54.8c-0.5,5.2-1.1,10.5-1.8,15.7c-0.1,0.8,1.1,1.1,1.2,0.3
				c2.5-18.2,3.5-36.7,3.1-55.1c-0.1-5.2-0.3-10.5-0.7-15.7C375.8,159.6,374.5,159.5,374.6,160.4L374.6,160.4z"/>
		</g>
	</g>
	<g>
		<g>
			<path class="st3" d="M169.2,103.2c16.9-0.4,33.7-0.1,50.6,0.8c0.8,0,0.8-1.2,0-1.3c-16.8-0.9-33.7-1.1-50.6-0.8
				C168.4,102,168.4,103.3,169.2,103.2L169.2,103.2z"/>
		</g>
	</g>
	<g>
		<g>
			<path class="st3" d="M302.8,90.5c0.3,16.9,0.6,33.7,0.9,50.6c0,0.8,1.3,0.8,1.3,0c-0.3-16.9-0.6-33.7-0.9-50.6
				C304,89.7,302.8,89.7,302.8,90.5L302.8,90.5z"/>
		</g>
	</g>
	<g>
		<g>
			<path class="st3" d="M94.6,152.4c0.1,21.1,0.1,42.1,0.2,63.2c0,6,0,11.9,0,17.9c0,0.8,1.3,0.8,1.3,0c-0.1-21.1-0.1-42.1-0.2-63.2
				c0-6,0-11.9,0-17.9C95.9,151.5,94.6,151.5,94.6,152.4L94.6,152.4z"/>
		</g>
	</g>
	<g>
		<g>
			<path class="st3" d="M91.4,379.4c3.5,0.3,7,0.5,10.4,0.8c0.8,0.1,0.8-1.2,0-1.3c-3.5-0.3-7-0.5-10.4-0.8
				C90.6,378.1,90.6,379.3,91.4,379.4L91.4,379.4z"/>
		</g>
	</g>
	<g>
		<g>
			<path class="st3" d="M85.1,384.2c17.4-3.3,35.1-5,52.8-4.9c0.8,0,0.8-1.2,0-1.3c-17.8-0.1-35.6,1.6-53.1,4.9
				C84,383.2,84.3,384.4,85.1,384.2L85.1,384.2z"/>
		</g>
	</g>
	<g>
		<g>
			<path class="st3" d="M157.9,298.5c0.3,22.7,0.6,45.4,1,68.1c0.1,6.5,0.2,12.9,0.3,19.4c0,0.8,1.3,0.8,1.3,0
				c-0.3-22.7-0.6-45.4-1-68.1c-0.1-6.5-0.2-12.9-0.3-19.4C159.1,297.7,157.9,297.6,157.9,298.5L157.9,298.5z"/>
		</g>
	</g>
	<g>
		<g>
			<path class="st3" d="M153.2,320.1c13-1.7,26.2-2.6,39.3-2.7c0.8,0,0.8-1.3,0-1.3c-13.1,0.1-26.3,1-39.3,2.7
				C152.4,319,152.4,320.2,153.2,320.1L153.2,320.1z"/>
		</g>
	</g>
	<g>
		<g>
			<path class="st3" d="M237,300.9c1,19.6,2,39.2,3.1,58.8c0.3,5.5,0.6,11.1,0.9,16.6c0,0.8,1.3,0.8,1.3,0c-1-19.6-2-39.2-3.1-58.8
				c-0.3-5.5-0.6-11.1-0.9-16.6C238.2,300.1,236.9,300.1,237,300.9L237,300.9z"/>
		</g>
	</g>
	<g>
		<g>
			<path class="st3" d="M241.5,382.1c20.9-0.7,41.7-1.4,62.6-2.1c5.9-0.2,11.8-0.4,17.7-0.6c0.8,0,0.8-1.3,0-1.3
				c-20.9,0.7-41.7,1.4-62.6,2.1c-5.9,0.2-11.8,0.4-17.7,0.6C240.7,380.9,240.7,382.1,241.5,382.1L241.5,382.1z"/>
		</g>
	</g>
	<g>
		<g>
			<path class="st3" d="M378.4,323.4c-1.7,16-2.6,32.1-2.7,48.1c0,0.8,1.2,0.8,1.3,0c0.1-16.1,1-32.2,2.7-48.1
				C379.7,322.6,378.5,322.6,378.4,323.4L378.4,323.4z"/>
		</g>
	</g>
	<g>
		<g>
			<path class="st3" d="M407.8,243.9c-0.8,14.7-1.1,29.4-0.8,44.2c0,0.8,1.3,0.8,1.3,0c-0.3-14.7-0.1-29.5,0.8-44.2
				C409.1,243.1,407.9,243.1,407.8,243.9L407.8,243.9z"/>
		</g>
	</g>
	<g>
		<g>
			<path class="st3" d="M419.9,240.4c16.6-3.2,33.5-4.7,50.4-4.5c0.8,0,0.8-1.2,0-1.3c-17-0.2-34,1.4-50.8,4.5
				C418.7,239.3,419.1,240.5,419.9,240.4L419.9,240.4z"/>
		</g>
	</g>
	<g>
		<g>
			<path class="st3" d="M398,311.8c9.4-0.4,18.8-1.2,28.1-2.2c0.8-0.1,0.8-1.3,0-1.3c-9.3,1.1-18.7,1.8-28.1,2.2
				C397.2,310.6,397.2,311.9,398,311.8L398,311.8z"/>
		</g>
	</g>
	<g>
		<g>
			<path class="st3" d="M404.5,254.9c0.8,0,0.8-1.3,0-1.3C403.7,253.7,403.7,254.9,404.5,254.9L404.5,254.9z"/>
		</g>
	</g>
	<g>
		<g>
			<path class="st3" d="M376.9,0.6c1.1,17.7,1.8,35.4,2,53.1c0.1,5.1,0.1,10.1,0.1,15.2c0,0.8,1.2,0.8,1.3,0
				c0.1-17.7-0.4-35.4-1.2-53.1c-0.3-5.1-0.5-10.1-0.9-15.2C378.1-0.2,376.8-0.2,376.9,0.6L376.9,0.6z"/>
		</g>
	</g>
	<g>
		<g>
			<path class="st3" d="M298.7,79.9c18.2-5,37.2-6.9,56-5.6c0.8,0.1,0.8-1.2,0-1.3c-18.9-1.3-38,0.6-56.4,5.6
				C297.6,78.9,297.9,80.1,298.7,79.9L298.7,79.9z"/>
		</g>
	</g>
	<g>
		<g>
			<path class="st3" d="M72.1,89.7c0.2,22.3,0,44.6-0.4,66.9c-0.1,6.3-0.3,12.6-0.4,19c0,0.8,1.2,0.8,1.3,0
				c0.6-22.3,0.9-44.6,0.9-66.9c0-6.3,0-12.7-0.1-19C73.3,88.9,72.1,88.9,72.1,89.7L72.1,89.7z"/>
		</g>
	</g>
	<g>
		<g>
			<path class="st3" d="M158.8,402.7c10.4-1.2,20.9-1.3,31.3-0.3c0.8,0.1,0.8-1.2,0-1.3c-10.4-1-20.9-0.9-31.3,0.3
				C158,401.5,158,402.8,158.8,402.7L158.8,402.7z"/>
		</g>
	</g>
	<g>
		<g>
			<path class="st3" d="M241.9,399.6c-0.3,16.1-0.6,32.1-1,48.2c0,0.8,1.2,0.8,1.3,0c0.3-16.1,0.6-32.1,1-48.2
				C243.1,398.8,241.9,398.8,241.9,399.6L241.9,399.6z"/>
		</g>
	</g>
</g>
<g id="Layer_8" class="st1">
	<rect x="112.2" y="68.7" class="st4" width="270" height="324"/>
	<g class="st2">
		<g>
			<path class="st5" d="M230,121c-4.1,9.3-8.3,18.7-10.9,28.5c-1.4,5-2.2,10.2-2.7,15.4s-0.1,10.2,0.6,15.4c0.8,5.6,2.6,11,5.2,16
				c5.8-3.4,11.5-6.7,17.3-10.1c-0.6-1.2-1.1-2.3-1.6-3.5c0.3,0.8,0.7,1.6,1,2.4c-2.2-5.2-3.6-10.6-4.4-16.2
				c0.1,0.9,0.2,1.8,0.4,2.7c-0.8-5.8-0.7-11.7,0-17.5c-0.1,0.9-0.2,1.8-0.4,2.7c0.8-5.7,2.3-11.2,4.5-16.5c-0.3,0.8-0.7,1.6-1,2.4
				c1.7-4,3.8-7.7,6.2-11.3c1.4-1.9,1.7-5.5,1-7.7c-0.7-2.1-1.8-3.8-3.6-5.2c-3.8-2.9-9.8-2.9-13.1,0.8
				c-8.5,9.5-14.7,21.1-17.5,33.5c-1.4,6.2-2.1,12.6-1.9,18.9c0.1,3.6,0.5,7.1,1.1,10.6c0.4,2.6,1,5.3,1.8,7.9
				c1.4,4.2,3.3,7.8,6.1,11.2c2.6,3.2,6.6,5.7,10.7,6.5c3.2,0.6,6.1,0.3,8.7-1.8c2.5-1.9,3.9-4.7,3.9-7.9
				c0.3-10.9,0.7-21.9,2.2-32.8c-0.1,0.9-0.2,1.8-0.4,2.7c1.3-9.9,3.5-19.7,7.4-28.9c-0.3,0.8-0.7,1.6-1,2.4
				c2.3-5.5,5.3-10.7,8.9-15.5c-0.5,0.7-1,1.3-1.6,2c1-1.3,2.1-2.6,3.2-3.9c-5.2-4-10.5-8.1-15.7-12.1
				c-10.4,22.1-15.7,46.6-14.8,71.1c0.3,7.3,1.2,14.5,2.4,21.7c0.3,0.8,0.7,1.6,1,2.4c0.6,1.2,1.5,2.1,2.6,2.8
				c1.7,1.3,3.9,2.2,6.1,2.1c1.8-0.1,3.5-0.5,5-1.4c2-1,4.2-3.7,4.6-6c2.8-16.1,5.6-32.2,10.6-47.7c1.4-4.3,2.9-8.6,4.7-12.8
				c-0.3,0.8-0.7,1.6-1,2.4c3.7-8.7,8.3-17,14.1-24.5c-0.5,0.7-1,1.3-1.6,2c0.2-0.2,0.3-0.4,0.5-0.7c-5.6-3.2-11.1-6.5-16.7-9.7
				c-3.5,12.1-7.2,24.3-10.5,36.5c-3.4,12.7-6.2,25.7-6.9,38.8c-0.4,7.7,0.2,15.3,1.5,22.9c0.3,0.8,0.7,1.6,1,2.4
				c0.6,1.2,1.5,2.1,2.6,2.8c1.7,1.3,3.9,2.2,6.1,2.1c4.4-0.2,8.5-3,9.6-7.3c6.8-25,14.1-49.8,22.1-74.4c2.3-7,4.6-14,6.9-21
				c1-3,0.1-6.3-1.8-8.7c-2-2.6-4.6-3.7-7.9-3.9c-16.7-1.3-34.2,3.4-48,13c4.9,3.8,9.8,7.5,14.7,11.3c0.2-1.5,0.6-3,1.2-4.4
				c-0.3,0.8-0.7,1.6-1,2.4c0.7-1.5,1.5-2.9,2.5-4.2c-0.5,0.7-1,1.3-1.6,2c1.2-1.6,2.7-3,4.3-4.3c-0.7,0.5-1.3,1-2,1.6
				c1.9-1.5,4-2.7,6.3-3.6c-0.8,0.3-1.6,0.7-2.4,1c2.6-1.1,5.3-1.7,8-2.1c-0.9,0.1-1.8,0.2-2.7,0.4c6.4-0.8,12.9-0.2,19.3,0.6
				c-0.9-0.1-1.8-0.2-2.7-0.4c10,1.4,20.1,2.8,29.5,6.6c-0.8-0.3-1.6-0.7-2.4-1c3.8,1.6,7.4,3.6,10.7,6.1c-0.7-0.5-1.3-1-2-1.6
				c2.5,1.9,4.8,4.1,6.7,6.6c-0.5-0.7-1-1.3-1.6-2c1.5,2,2.8,4.2,3.8,6.5c-0.3-0.8-0.7-1.6-1-2.4c1.2,2.9,2,5.9,2.4,9
				c-0.1-0.9-0.2-1.8-0.4-2.7c0.9,7.2,0.3,14.7-0.7,21.9c0.1-0.9,0.2-1.8,0.4-2.7c-0.8,5.6-2,11.2-4.2,16.5c0.3-0.8,0.7-1.6,1-2.4
				c-1.4,3.2-3,6.2-5.1,8.9c0.5-0.7,1-1.3,1.6-2c-2.4,3-5.1,5.7-8.2,8c0.7-0.5,1.3-1,2-1.6c-4,3.1-8.3,5.6-12.8,8.1
				c-4.8,2.7-9.6,5.2-14.6,7.4c0.8-0.3,1.6-0.7,2.4-1c-4.7,2-9.5,3.5-14.5,4.2c0.9-0.1,1.8-0.2,2.7-0.4c-3.1,0.4-6.3,0.5-9.4,0.1
				c0.9,0.1,1.8,0.2,2.7,0.4c-2.9-0.4-5.7-1.2-8.4-2.3c0.8,0.3,1.6,0.7,2.4,1c-3-1.3-5.8-2.9-8.4-4.9c0.7,0.5,1.3,1,2,1.6
				c-2.6-2-4.9-4.4-6.9-6.9c0.5,0.7,1,1.3,1.6,2c-2-2.6-3.6-5.4-4.9-8.4c0.3,0.8,0.7,1.6,1,2.4c-1.2-2.8-2-5.7-2.4-8.7
				c0.1,0.9,0.2,1.8,0.4,2.7c-0.2-1.6-0.3-3.2-0.3-4.9c-6.5,0.9-13.1,1.8-19.6,2.7c2.1,11.8,7.2,24.4,18.3,30.3
				c12.2,6.5,26.9,3.5,38.2-3.5c10.2-6.4,18.7-15.9,24.4-26.4c5.8-10.7,9.1-22.8,9.2-35c0-4.9-0.6-9.7-4.2-13.3
				c-4.6-4.7-11.4-4.7-16.9-1.9c-3,1.5-5.4,4-7.4,6.6c-2.1,2.7-4.2,5.4-5.9,8.4c-6,10.6-9.1,23.5-7.8,35.7c0.5,4.2,1.1,7.5,2.9,11.4
				c1.9,4,5.6,7.2,9.8,8.4c8.7,2.6,16.7-3.3,23.1-8.5c9.2-7.5,16-18.1,19.6-29.4c1.7-5.3,2.7-11.2,2.2-16.7
				c-0.7-6.7-2.8-13.6-8.1-18.2c-3-2.5-6.4-4.6-10.3-5.4c-4.3-0.8-8.3-0.7-12.6,0.2c-6.8,1.5-12.6,5.3-17.9,9.7
				c-9.2,7.5-15.9,18.3-19,29.7c-0.9,3.2-1.4,6.5-1.7,9.8c-0.4,3.5-0.3,7,0.4,10.5c1,4.7,3.9,8.3,7.6,11.1c2.9,2.2,6.7,3,10.3,3.2
				c6,0.3,12.4-2.1,17.4-5.3c5.2-3.4,10.2-7.6,14.5-12c4.5-4.6,8.6-9.8,12.2-15.2c3.6-5.5,6.7-11.7,7.9-18.1
				c0.4-2.1,0.7-4.2,0.8-6.3c0.1-2.2-0.2-4.3-0.5-6.4c-0.5-3.2-1.6-6.1-3-9c-3.1-6.2-8.8-11.2-15.5-13.2c-7.2-2.2-15.1-0.5-21.4,3.3
				c-5.9,3.5-10.7,8.6-14.5,14.3c-3.7,5.5-6.5,11.6-8.5,17.9c-0.9,2.9-1.7,5.8-2.1,8.8c-0.5,3.3-1.2,6.8-1.1,10.2
				c0.2,4.4,1.5,9.1,4.8,12.2c2.6,2.4,5.8,3.7,9.3,3.9c3,0.1,5.5-0.8,8.2-2c2.5-1.1,4.7-2.7,6.9-4.3c2.6-2,5.1-4,7.4-6.2
				c8.3-8.2,14.4-19,17-30.4c0.8-3.3,1.2-6.7,1.5-10.1c0.2-3,0.1-6-0.7-8.9c-1.2-4-3.7-8.1-7.5-9.9c-3.1-1.5-6.1-1.9-9.5-1.2
				c-2.8,0.5-5.1,2.2-7.3,4c-2.7,2.3-4.9,5.1-7,7.9c-1.7,2.3-3.2,4.7-4.4,7.3c-1.2,2.5-1.8,5-1,7.7c0.6,2.3,2.4,4.8,4.6,6
				c2.3,1.2,5.1,1.8,7.7,1c2.4-0.8,4.9-2.3,6-4.6c1.3-2.7,2.8-5.2,4.7-7.6c-0.5,0.7-1,1.3-1.6,2c1.6-2.1,3.4-4.1,5.5-5.8
				c-0.7,0.5-1.3,1-2,1.6c0.5-0.4,1-0.7,1.6-1c-0.8,0.3-1.6,0.7-2.4,1c0.4-0.1,0.7-0.2,1.1-0.3c-0.9,0.1-1.8,0.2-2.7,0.4
				c0.3,0,0.6,0,0.8,0c-0.9-0.1-1.8-0.2-2.7-0.4c0.3,0.1,0.5,0.1,0.8,0.2c-0.8-0.3-1.6-0.7-2.4-1c0.3,0.1,0.6,0.3,0.9,0.5
				c-0.7-0.5-1.3-1-2-1.6c0.3,0.2,0.5,0.5,0.8,0.8c-0.5-0.7-1-1.3-1.6-2c0.4,0.5,0.6,1,0.9,1.5c-0.3-0.8-0.7-1.6-1-2.4
				c0.4,1,0.7,2,0.8,3c-0.1-0.9-0.2-1.8-0.4-2.7c0.3,2.3,0,4.7-0.3,7c0.1-0.9,0.2-1.8,0.4-2.7c-0.6,4.6-1.9,9.1-3.6,13.4
				c0.3-0.8,0.7-1.6,1-2.4c-1.9,4.4-4.3,8.5-7.2,12.3c0.5-0.7,1-1.3,1.6-2c-2.7,3.5-5.8,6.6-9.3,9.3c0.7-0.5,1.3-1,2-1.6
				c-2.3,1.8-4.8,3.6-7.5,4.7c0.8-0.3,1.6-0.7,2.4-1c-0.7,0.3-1.3,0.4-2,0.6c0.9-0.1,1.8-0.2,2.7-0.4c-0.4,0-0.8,0-1.2,0
				c0.9,0.1,1.8,0.2,2.7,0.4c-0.4-0.1-0.8-0.2-1.2-0.3c0.8,0.3,1.6,0.7,2.4,1c-0.3-0.1-0.5-0.3-0.8-0.5c0.7,0.5,1.3,1,2,1.6
				c-0.3-0.3-0.6-0.5-0.8-0.8c0.5,0.7,1,1.3,1.6,2c-0.2-0.3-0.4-0.7-0.6-1c0.3,0.8,0.7,1.6,1,2.4c-0.3-0.7-0.5-1.4-0.6-2.1
				c0.1,0.9,0.2,1.8,0.4,2.7c-0.3-2.4,0-4.8,0.3-7.1c-0.1,0.9-0.2,1.8-0.4,2.7c0.8-5.4,2.2-10.7,4.4-15.8c-0.3,0.8-0.7,1.6-1,2.4
				c1.9-4.4,4.3-8.7,7.2-12.5c-0.5,0.7-1,1.3-1.6,2c1.9-2.4,4.1-4.6,6.5-6.5c-0.7,0.5-1.3,1-2,1.6c1.8-1.3,3.7-2.5,5.7-3.4
				c-0.8,0.3-1.6,0.7-2.4,1c1.5-0.6,3.1-1.1,4.7-1.3c-0.9,0.1-1.8,0.2-2.7,0.4c1.2-0.1,2.5-0.1,3.7,0c-0.9-0.1-1.8-0.2-2.7-0.4
				c1.4,0.2,2.6,0.5,3.9,1.1c-0.8-0.3-1.6-0.7-2.4-1c1.1,0.5,2,1,3,1.7c-0.7-0.5-1.3-1-2-1.6c1.2,0.9,2.2,2,3.1,3.2
				c-0.5-0.7-1-1.3-1.6-2c1,1.3,1.8,2.7,2.4,4.3c-0.3-0.8-0.7-1.6-1-2.4c0.7,1.8,1.2,3.6,1.5,5.5c-0.1-0.9-0.2-1.8-0.4-2.7
				c0.2,2,0.2,3.9,0,5.9c0.1-0.9,0.2-1.8,0.4-2.7c-0.4,3-1.3,5.9-2.4,8.7c0.3-0.8,0.7-1.6,1-2.4c-2.2,5-5.2,9.6-8.5,13.9
				c0.5-0.7,1-1.3,1.6-2c-4.5,5.8-9.7,11-15.5,15.5c0.7-0.5,1.3-1,2-1.6c-2.5,2-5.1,3.7-8.1,5c0.8-0.3,1.6-0.7,2.4-1
				c-1.8,0.7-3.6,1.3-5.6,1.6c0.9-0.1,1.8-0.2,2.7-0.4c-1.2,0.1-2.3,0.2-3.5,0c0.9,0.1,1.8,0.2,2.7,0.4c-0.9-0.1-1.7-0.3-2.6-0.7
				c0.8,0.3,1.6,0.7,2.4,1c-0.6-0.3-1.2-0.6-1.8-1.1c0.7,0.5,1.3,1,2,1.6c-0.5-0.4-0.9-0.8-1.3-1.3c0.5,0.7,1,1.3,1.6,2
				c-0.5-0.6-0.8-1.3-1.2-2c0.3,0.8,0.7,1.6,1,2.4c-0.4-1-0.6-2-0.8-3c0.1,0.9,0.2,1.8,0.4,2.7c-0.3-2.5-0.1-5,0.2-7.4
				c-0.1,0.9-0.2,1.8-0.4,2.7c0.6-4.3,1.8-8.5,3.4-12.5c-0.3,0.8-0.7,1.6-1,2.4c1.7-4,3.9-7.8,6.6-11.2c-0.5,0.7-1,1.3-1.6,2
				c2.5-3.2,5.4-6.1,8.6-8.7c-0.7,0.5-1.3,1-2,1.6c2.5-1.9,5.2-3.6,8.1-4.9c-0.8,0.3-1.6,0.7-2.4,1c2.1-0.9,4.3-1.5,6.5-1.8
				c-0.9,0.1-1.8,0.2-2.7,0.4c1.5-0.2,3.1-0.2,4.6,0c-0.9-0.1-1.8-0.2-2.7-0.4c1.1,0.2,2.2,0.5,3.3,0.9c-0.8-0.3-1.6-0.7-2.4-1
				c1,0.4,2,1,2.9,1.7c-0.7-0.5-1.3-1-2-1.6c0.9,0.7,1.6,1.4,2.3,2.3c-0.5-0.7-1-1.3-1.6-2c0.8,1,1.4,2.2,1.9,3.4
				c-0.3-0.8-0.7-1.6-1-2.4c0.7,1.7,1.1,3.4,1.3,5.2c-0.1-0.9-0.2-1.8-0.4-2.7c0.3,2.5,0.3,5.1-0.1,7.6c0.1-0.9,0.2-1.8,0.4-2.7
				c-0.6,3.9-1.7,7.8-3.3,11.4c0.3-0.8,0.7-1.6,1-2.4c-1.8,4.2-4.1,8.2-6.9,11.9c0.5-0.7,1-1.3,1.6-2c-2.8,3.6-6.1,6.9-9.7,9.7
				c0.7-0.5,1.3-1,2-1.6c-2.2,1.7-4.6,3.3-7.1,4.5c0.8-0.3,1.6-0.7,2.4-1c-0.8,0.3-1.7,0.6-2.5,0.7c0.9-0.1,1.8-0.2,2.7-0.4
				c-0.4,0-0.8,0-1.3,0c0.9,0.1,1.8,0.2,2.7,0.4c-0.5-0.1-1-0.2-1.5-0.4c0.8,0.3,1.6,0.7,2.4,1c-0.5-0.2-0.9-0.5-1.4-0.8
				c0.7,0.5,1.3,1,2,1.6c-0.4-0.3-0.8-0.7-1.1-1.1c0.5,0.7,1,1.3,1.6,2c-0.5-0.7-1-1.5-1.3-2.3c0.3,0.8,0.7,1.6,1,2.4
				c-0.6-1.5-1-3.1-1.2-4.7c0.1,0.9,0.2,1.8,0.4,2.7c-0.6-4.3-0.6-8.7,0-13.1c-0.1,0.9-0.2,1.8-0.4,2.7c0.6-4.6,1.8-9.1,3.6-13.4
				c-0.3,0.8-0.7,1.6-1,2.4c1.7-4,3.9-7.8,6.6-11.3c-0.5,0.7-1,1.3-1.6,2c1.3-1.6,2.6-3.3,4.2-4.5c-0.7,0.5-1.3,1-2,1.6
				c0.6-0.4,1.2-0.8,1.9-1.1c-0.8,0.3-1.6,0.7-2.4,1c0.5-0.2,1.1-0.4,1.6-0.5c-0.9,0.1-1.8,0.2-2.7,0.4c0.3,0,0.6,0,1,0
				c-0.9-0.1-1.8-0.2-2.7-0.4c0.3,0.1,0.6,0.1,0.9,0.3c-0.8-0.3-1.6-0.7-2.4-1c0.2,0.1,0.4,0.2,0.6,0.3c-0.7-0.5-1.3-1-2-1.6
				c0.3,0.2,0.5,0.5,0.7,0.8c-0.5-0.7-1-1.3-1.6-2c0.1,0.2,0.3,0.4,0.3,0.6c-0.3-0.8-0.7-1.6-1-2.4c0.2,0.6,0.4,1.2,0.5,1.8
				c-0.1-0.9-0.2-1.8-0.4-2.7c0.4,3.7,0,7.6-0.4,11.2c0.1-0.9,0.2-1.8,0.4-2.7c-0.8,5.7-2.3,11.2-4.5,16.5c0.3-0.8,0.7-1.6,1-2.4
				c-2.2,5.2-5,10-8.4,14.5c0.5-0.7,1-1.3,1.6-2c-3.3,4.2-7,8-11.2,11.3c0.7-0.5,1.3-1,2-1.6c-3,2.3-6.3,4.3-9.7,5.8
				c0.8-0.3,1.6-0.7,2.4-1c-2.9,1.2-5.8,2.1-8.9,2.5c0.9-0.1,1.8-0.2,2.7-0.4c-2.2,0.3-4.5,0.3-6.7,0c0.9,0.1,1.8,0.2,2.7,0.4
				c-1.7-0.3-3.4-0.7-5-1.3c0.8,0.3,1.6,0.7,2.4,1c-1.6-0.7-3.1-1.5-4.5-2.6c0.7,0.5,1.3,1,2,1.6c-1.4-1.1-2.6-2.4-3.8-3.8
				c0.5,0.7,1,1.3,1.6,2c-1.5-2-2.8-4.3-3.8-6.6c0.3,0.8,0.7,1.6,1,2.4c-1.6-3.9-2.6-8-3.4-12.1c-0.4-2.2-2.6-4.9-4.6-6
				s-4.1-1.5-6.4-1.2c-4.9,0.7-8.6,4.8-8.7,9.8c-0.4,20.6,15.1,40.1,35,45.1c6.2,1.6,12.3,1.5,18.6,0.6c6-0.8,11.6-2.9,17.1-5.3
				c4.9-2.1,9.7-4.7,14.4-7.3c4.3-2.4,8.6-5,12.6-8c5.2-3.9,9.6-8.2,13.2-13.6c3.1-4.7,5.3-10.1,6.8-15.5c1.5-5.5,2.3-11.2,2.9-16.9
				c0.5-5.3,0.9-10.6,0.4-15.9c-0.6-6.6-2-12.9-5.3-18.8c-2.5-4.5-6.1-8.7-10.2-12c-2.4-1.9-4.8-3.7-7.4-5.2c-2.7-1.6-5.5-2.8-8.3-4
				c-5.1-2.1-10.4-3.5-15.8-4.5c-6.2-1.2-12.4-2-18.7-2.8c-5.5-0.7-11.1-1.1-16.7-0.4c-6.2,0.8-12.3,2.3-17.6,5.7
				c-4.7,3-9.1,7.1-11.7,12.1c-1.3,2.5-2.4,5.2-2.8,8c-0.3,1.8-0.5,3.5,0,5.3c0.6,2.1,1.9,3.9,3.6,5.2c1.4,1.1,2.9,1.7,4.7,2
				c2.1,0.3,4.6,0,6.4-1.2c3.7-2.6,7.7-4.7,11.9-6.5c-0.8,0.3-1.6,0.7-2.4,1c5.5-2.3,11.2-3.9,17.1-4.7c-0.9,0.1-1.8,0.2-2.7,0.4
				c4.6-0.6,9.3-0.7,14-0.4c-3.2-4.2-6.4-8.4-9.6-12.7c-8.3,24.5-16,49.2-23.1,74.1c-2,7.1-4,14.2-5.9,21.3c6.4,0,12.9,0,19.3,0
				c-0.2-1.1-0.4-2.2-0.5-3.3c0.1,0.9,0.2,1.8,0.4,2.7c-1.2-8.8-0.9-17.7,0.3-26.4c-0.1,0.9-0.2,1.8-0.4,2.7
				c2.2-16.7,7.4-32.9,12.1-49.1c1.4-4.7,2.7-9.4,4.1-14.1c1.2-4.1-0.7-9.3-4.6-11.3c-1.6-0.8-3.3-1.3-5-1.4
				c-2.2-0.1-5.7,1.1-7.1,2.9c-4.2,5.3-8,10.9-11.2,16.8c-3.1,5.8-5.8,11.9-8.1,18.1c-4.2,11.3-7.1,23.2-9.5,35
				c-1.3,6.7-2.5,13.4-3.7,20.2c6.4,0,12.9,0,19.3,0c-0.4-2-0.7-4.1-1-6.2c0.1,0.9,0.2,1.8,0.4,2.7c-1.6-12.4-1.6-24.9,0-37.3
				c-0.1,0.9-0.2,1.8-0.4,2.7c1.7-12.5,5-24.7,9.9-36.4c-0.3,0.8-0.7,1.6-1,2.4c0.8-1.8,1.5-3.5,2.4-5.3c1.1-2.4,1.9-5.1,1-7.7
				c-0.7-2.1-1.8-3.8-3.6-5.2c-3.7-2.9-9.8-2.9-13.1,0.8c-8.5,9.4-14.3,20.6-17.9,32.7c-3.5,11.6-5,23.9-5.9,36
				c-0.4,6.4-0.7,12.9-0.8,19.3c4.2-3.2,8.4-6.4,12.7-9.6c-0.7-0.1-1.3-0.3-1.9-0.5c0.8,0.3,1.6,0.7,2.4,1c-0.8-0.3-1.5-0.8-2.2-1.3
				c0.7,0.5,1.3,1,2,1.6c-0.9-0.7-1.6-1.5-2.3-2.4c0.5,0.7,1,1.3,1.6,2c-1.1-1.4-1.9-2.9-2.6-4.5c0.3,0.8,0.7,1.6,1,2.4
				c-1.5-3.6-2.2-7.4-2.8-11.2c0.1,0.9,0.2,1.8,0.4,2.7c-0.7-5.7-0.7-11.4,0-17.1c-0.1,0.9-0.2,1.8-0.4,2.7
				c0.8-5.8,2.3-11.5,4.6-16.9c-0.3,0.8-0.7,1.6-1,2.4c2.2-5.1,5-10,8.4-14.4c-0.5,0.7-1,1.3-1.6,2c1-1.2,2-2.4,3-3.6
				c-5.2-4-10.5-8.1-15.7-12.1c-11.8,16.8-15.3,38.8-10.8,58.6c1.3,5.7,3.4,11.3,6.1,16.5c1.1,2.2,3.7,4,6,4.6
				c2.4,0.7,5.6,0.4,7.7-1c4.8-3.1,6.1-8.7,3.6-13.7c-0.4-0.8-0.7-1.5-1.1-2.3c0.3,0.8,0.7,1.6,1,2.4c-1.6-3.7-2.6-7.6-3.1-11.5
				c0.1,0.9,0.2,1.8,0.4,2.7c-0.7-5.2-0.5-10.4,0.1-15.5c-0.1,0.9-0.2,1.8-0.4,2.7c1.4-9.9,4.9-19.4,8.8-28.5
				c-0.3,0.8-0.7,1.6-1,2.4c1-2.4,2.1-4.9,3.1-7.3c1.1-2.6,1.8-4.9,1-7.7c-0.6-2.3-2.4-4.8-4.6-6c-2.3-1.2-5.1-1.8-7.7-1
				C233.7,117.2,231,118.7,230,121L230,121z"/>
		</g>
	</g>
	<g class="st2">
		<g>
			<path class="st5" d="M123.9,149.8c5.6,8.2,10.4,17,14.3,26.2c-0.3-0.8-0.7-1.6-1-2.4c1,2.4,1.9,4.7,2.8,7.2
				c0.8,2.1,1.8,3.8,3.6,5.2c1.7,1.3,3.9,2.2,6.1,2.1c1.8-0.1,3.5-0.5,5-1.4c2-1.1,4.1-3.7,4.6-6c1-4.9,1.7-9.9,1.7-14.9
				c0.1-5.1-0.5-10.1-1.4-15.1c-1.4-8.5-4.1-16.7-6.8-24.9c-6.1,2.6-12.2,5.1-18.3,7.7c5.9,13.4,11.8,26.7,17.6,40.1
				c1.2,2.8,4.5,4.4,7.3,4.8c3.2,0.4,6-0.5,8.4-2.8c2.7-2.5,4.7-6.2,5.2-9.8c0.3-1.9,0.6-3.8,0.5-5.7c-0.1-2-0.4-4-0.6-5.9
				c-0.9-6.2-2.2-12.4-3-18.6c0.1,0.9,0.2,1.8,0.4,2.7c-0.8-6.3-1.2-12.6-0.6-18.9c-6.7,0-13.3,0-20,0c0.5,10.7,1.8,21.4,3.8,31.9
				c0.5,2.5,1,4.9,1.5,7.3c0.5,2.3,0.9,4.6,1.7,6.8c1.4,3.7,3.5,7.2,7.1,9.1c2.7,1.5,5.9,1.9,8.9,1.1c3.2-0.8,5.6-3,7.4-5.6
				c3.1-4.7,5.8-9.7,8.7-14.5c2.7-4.5,1.1-11.2-3.6-13.7c-4.8-2.6-10.8-1.2-13.7,3.6s-5.6,9.8-8.7,14.5c0.5-0.7,1-1.3,1.6-2
				c-0.2,0.2-0.3,0.4-0.5,0.6c0.7-0.5,1.3-1,2-1.6c-0.2,0.2-0.4,0.3-0.6,0.4c0.8-0.3,1.6-0.7,2.4-1c-0.2,0.1-0.4,0.1-0.5,0.1
				c0.9-0.1,1.8-0.2,2.7-0.4c-0.1,0-0.2,0-0.3,0c0.9,0.1,1.8,0.2,2.7,0.4c-0.2,0-0.4-0.1-0.5-0.1c0.8,0.3,1.6,0.7,2.4,1
				c-0.3-0.1-0.5-0.3-0.7-0.4c0.7,0.5,1.3,1,2,1.6c-0.3-0.3-0.6-0.6-0.9-0.9c0.5,0.7,1,1.3,1.6,2c-0.3-0.5-0.6-1-0.9-1.5
				c0.3,0.8,0.7,1.6,1,2.4c-0.8-1.9-1.1-4-1.6-6c-0.5-2.2-1-4.4-1.4-6.6c-0.9-4.4-1.6-8.9-2.2-13.3c0.1,0.9,0.2,1.8,0.4,2.7
				c-0.8-5.9-1.3-11.8-1.6-17.8c-0.1-2.6-1-5.2-2.9-7.1c-1.7-1.7-4.6-3-7.1-2.9c-2.6,0.1-5.3,1-7.1,2.9c-1.9,2.1-2.6,4.3-2.9,7.1
				c-1.4,13.6,2.2,27,4,40.4c-0.1-0.9-0.2-1.8-0.4-2.7c0.3,2,0.4,4.1,0.1,6.2c0.1-0.9,0.2-1.8,0.4-2.7c-0.1,0.9-0.4,1.8-0.7,2.7
				c0.3-0.8,0.7-1.6,1-2.4c-0.3,0.6-0.6,1.2-1,1.8c0.5-0.7,1-1.3,1.6-2c-0.3,0.4-0.6,0.7-0.9,1c5.2,0.7,10.5,1.3,15.7,2
				c-5.9-13.4-11.8-26.7-17.6-40.1c-0.9-2.1-3.9-4.1-6-4.6c-2.2-0.5-4.4-0.4-6.5,0.5c-4.4,1.8-7.3,7-5.8,11.8
				c2.9,9,5.9,18.1,7.2,27.5c-0.1-0.9-0.2-1.8-0.4-2.7c0.8,5.8,0.8,11.6,0.1,17.5c0.1-0.9,0.2-1.8,0.4-2.7c-0.2,1.6-0.5,3.1-0.8,4.7
				c6.4,0,12.9,0,19.3,0c-4.6-12.6-10.6-24.6-18.1-35.7c-1.5-2.2-3.4-3.9-6-4.6c-2.4-0.7-5.6-0.4-7.7,1c-2.1,1.4-4,3.4-4.6,6
				C122.3,144.6,122.4,147.6,123.9,149.8L123.9,149.8z"/>
		</g>
	</g>
	<g class="st2">
		<g>
			<path class="st5" d="M142.5,184.6c6.3,25.6,13.6,51,21.8,76.1c2.3,7.1,4.7,14.1,7.2,21.2c0.8,2.4,2.3,4.8,4.6,6
				c2.2,1.2,5.3,2,7.7,1c26.8-11.1,53.8-22,80.5-33.2c7.7-3.2,15.5-6.5,22.7-10.9c-5-2.9-10-5.8-15-8.6c0.5,19.4,1.2,38.8,2.1,58.2
				s2,38.8,3.2,58.1c0.7,10.9,1.5,21.8,2.3,32.8c0.2,2.7,1,5.1,2.9,7.1c1.7,1.7,4.6,3,7.1,2.9c2.6-0.1,5.3-1,7.1-2.9
				c1.7-1.9,3.1-4.4,2.9-7.1c-1.5-19.4-2.8-38.7-3.9-58.1s-2-38.8-2.7-58.2c-0.4-10.9-0.8-21.9-1-32.8c-0.1-3.6-1.8-6.8-5-8.6
				c-3.1-1.8-7-1.8-10.1,0c-6,3.6-12.4,6.5-18.8,9.2c0.8-0.3,1.6-0.7,2.4-1c-21.2,8.9-42.6,17.6-63.9,26.3c-6.1,2.5-12.1,5-18.2,7.5
				c4.1,2.3,8.2,4.7,12.3,7c-8.7-24.9-16.5-50.1-23.3-75.6c-1.9-7.2-3.8-14.4-5.6-21.6c-1.3-5.1-7.3-8.6-12.3-7
				C144.2,174,141.1,179.2,142.5,184.6L142.5,184.6z"/>
		</g>
	</g>
	<g class="st2">
		<g>
			<path class="st5" d="M280.2,236.1c5.4,7.8,12.1,14.3,19.3,20.4c6.7,5.6,13.7,10.9,20,17c3.9,3.8,7.4,7.9,10.7,12.2
				c-0.5-0.7-1-1.3-1.6-2c3,3.9,5.9,8,8.7,12.1c2.7,4,5.7,8,7.7,12.4c-0.3-0.8-0.7-1.6-1-2.4c0.8,1.9,1.3,3.7,1.5,5.7
				c-0.1-0.9-0.2-1.8-0.4-2.7c0.6,4.9,0.3,10,0.2,15c-0.1,5.1-0.1,10.3-0.2,15.4c-0.1,10.3-0.3,20.6-0.4,30.9
				c-0.1,5.8-0.2,11.6-0.2,17.4c-0.1,5.2,4.6,10.2,10,10c5.5-0.2,9.9-4.4,10-10c0.2-12.8,0.3-25.5,0.5-38.3
				c0.1-6.5,0.2-12.9,0.3-19.4c0.1-6.2,0.5-12.4,0.1-18.6c-0.3-4.2-1-8.1-2.6-11.9c-1.3-3-2.9-5.8-4.7-8.5c-3.2-4.8-6.5-9.6-10-14.3
				c-4-5.3-8.1-10.6-12.7-15.4c-3.6-3.7-7.6-7.1-11.6-10.4c-9.1-7.5-18.7-14.7-26-24c0.5,0.7,1,1.3,1.6,2c-0.7-0.9-1.3-1.7-1.9-2.6
				c-1.5-2.2-3.4-3.9-6-4.6c-2.4-0.7-5.6-0.4-7.7,1s-4,3.4-4.6,6C278.6,230.9,278.7,233.9,280.2,236.1L280.2,236.1z"/>
		</g>
	</g>
	<g class="st2">
		<g>
			<path d="M106.9,78.5c0.3,2.9,0.6,5.9,0.8,8.8c0.1,0.8,1.3,0.8,1.3,0c-0.3-2.9-0.6-5.9-0.8-8.8C108,77.7,106.8,77.7,106.9,78.5
				L106.9,78.5z"/>
		</g>
	</g>
	<g class="st2">
		<g>
			<path d="M107.6,72.8c0.1-1.9,0.2-3.7,0.3-5.6c-0.4,0-0.8,0-1.3,0c1.9,21.4,3.8,42.8,5.7,64.2s3.8,42.8,5.7,64.2
				c1.1,12.1,2.1,24.2,3.2,36.3c0.1,0.8,1.3,0.8,1.3,0c-1.9-21.4-3.8-42.8-5.7-64.2s-3.8-42.8-5.7-64.2c-1.1-12.1-2.1-24.2-3.2-36.3
				c-0.1-0.8-1.2-0.8-1.3,0c-0.1,1.9-0.2,3.7-0.3,5.6C106.3,73.7,107.5,73.7,107.6,72.8L107.6,72.8z"/>
		</g>
	</g>
	<g class="st2">
		<g>
			<path d="M116.4,102.6c0.4,36.2,0.8,72.4,1.2,108.6c0.4,36,0.8,72,1.2,108c0.2,20.3,0.4,40.6,0.7,60.9c0,0.7,1.1,0.9,1.2,0.2
				c0.4-1.8,0.9-3.5,1.3-5.3c0.2-0.8-1-1.1-1.2-0.3c-0.4,1.8-0.9,3.5-1.3,5.3c0.4,0.1,0.8,0.1,1.2,0.2c-0.4-36.2-0.8-72.4-1.2-108.6
				c-0.4-36-0.8-72-1.2-108c-0.2-20.3-0.4-40.6-0.7-60.9C117.7,101.8,116.4,101.8,116.4,102.6L116.4,102.6z"/>
		</g>
	</g>
	<g class="st2">
		<g>
			<path d="M111.4,397.9c17.4-0.4,34.8-0.8,52.2-1.2c17.3-0.4,34.6-0.8,52-1.2c17.4-0.4,34.8-0.8,52.2-1.2c17.3-0.4,34.6-0.8,52-1.2
				c8.7-0.2,17.4-0.4,26.1-0.6c4.4-0.1,8.7-0.2,13.1-0.3c2,0,5.9-0.6,4.7-3.6c-0.4-0.9-1.1-1.4-2.1-1.2c-0.8,0.1-0.5,1.3,0.3,1.2
				c0.5-0.1,0.7,0.6,0.7,1c0,0.5-0.3,0.8-0.8,1.1c-0.7,0.4-1.6,0.4-2.4,0.4c-2.2,0.1-4.4,0.1-6.5,0.1c-4.2,0.1-8.4,0.2-12.5,0.3
				c-8.2,0.2-16.4,0.4-24.6,0.5c-16.6,0.4-33.1,0.7-49.7,1.1c-33,0.7-65.9,1.5-98.9,2.2c-18.6,0.4-37.1,0.8-55.7,1.2
				C110.6,396.7,110.6,398,111.4,397.9L111.4,397.9z"/>
		</g>
	</g>
	<g class="st2">
		<g>
			<path d="M382.1,59.9c2.6,22,2,44.1,0.9,66.1s-2.2,44.1-2.8,66.1c-1.3,44.2-1.4,88.5-1.2,132.8c0.2,24.8,0.4,49.7,0.7,74.5
				c0.4,0,0.8,0,1.3,0c-3.1-25.2-4.4-50.6-3.6-76c-0.4,0-0.8,0-1.3,0c1.5,20.8,1.3,41.7-0.6,62.5c-0.1,0.8,1.2,0.8,1.3,0
				c1.9-20.8,2.1-41.7,0.6-62.5c-0.1-0.8-1.2-0.8-1.3,0c-0.7,25.4,0.5,50.8,3.6,76c0.1,0.8,1.3,0.8,1.3,0c-0.5-44.5-1-89-0.8-133.5
				c0.2-44.2,1.4-88.4,3.7-132.6c1.3-24.5,2.3-49.1-0.6-73.5C383.2,59.1,382,59.1,382.1,59.9L382.1,59.9z"/>
		</g>
	</g>
	<g class="st2">
		<g>
			<path d="M100.2,66.3c41.2,0.9,82.5,1.6,123.7,2.2c41,0.6,82.1,1.1,123.1,1.4c23.1,0.2,46.3,0.3,69.4,0.4c0.8,0,0.8-1.2,0-1.3
				c-41.2-0.2-82.5-0.5-123.7-0.9c-41-0.4-82.1-1-123.1-1.7c-23.1-0.4-46.3-0.9-69.4-1.3C99.4,65,99.4,66.3,100.2,66.3L100.2,66.3z"
				/>
		</g>
	</g>
	<g class="st2">
		<g>
			<path d="M334.6,68.2c-2.1,0.3-4.3,0.5-6.4,0.8c-0.3,0-0.6,0.3-0.6,0.6c0,0.3,0.3,0.7,0.6,0.6c2.1-0.3,4.3-0.5,6.4-0.8
				c0.3,0,0.6-0.3,0.6-0.6C335.2,68.6,335,68.2,334.6,68.2L334.6,68.2z"/>
		</g>
	</g>
	<g class="st2">
		<g>
			<path d="M287,107.5c-12.4-5-26.5-4.9-39.1-0.6c-12.7,4.4-23.8,12.9-30.7,24.5c-7.2,12.2-9.4,27-7.1,40.9
				c2.3,14,9.4,26.9,20.3,36.1c10.5,8.9,23.9,14.3,37.7,15.5c15.6,1.4,30.7-3.3,43.9-11.4c12.5-7.6,23.6-18.3,30.2-31.5
				c3.2-6.4,5.2-13.3,5.8-20.4c0.5-7.2-0.6-14.6-3-21.4c-4.9-13.9-14.9-25.7-27.4-33.4c-13.6-8.5-29.8-12.2-45.7-12.7
				c-4-0.1-7.9,0-11.9,0.3c-0.8,0.1-0.8,1.3,0,1.3c15.5-1.1,31.4,0.6,45.9,6.6c13.8,5.7,25.7,15.4,33.2,28.4
				c7.3,12.5,9.8,27.3,5.7,41.3c-4,13.7-13.3,25.4-24.3,34.2c-11.9,9.5-26.6,16.6-42,17.7c-13.5,1-27.3-2.4-38.9-9.3
				c-11.9-7.1-21.1-18.1-25.7-31.3c-4.5-13.1-4.6-27.7,0.1-40.8c4.6-12.8,13.8-23.2,25.7-29.5c11.5-6.1,25.1-8.5,37.9-5.9
				c3.1,0.6,6.1,1.5,9,2.7C287.4,109,287.7,107.8,287,107.5L287,107.5z"/>
		</g>
	</g>
	<g class="st2">
		<g>
			<path d="M259.7,132.6c0.5-0.8,0.9-1.7,1.4-2.5c0.1-0.2,0.1-0.6-0.1-0.8c-1.1-1.1-3-0.9-4.1,0.1c-0.6,0.5-0.9,1.3-0.8,2.1
				c0.1,0.9,0.6,1.7,1.3,2.2c0.7,0.6,1.8,0.8,2.7,0.4c0.3-0.1,0.5-0.4,0.4-0.8c-0.1-0.3-0.4-0.6-0.8-0.4c-0.1,0.1-0.3,0.1-0.4,0.1
				c0.2,0-0.1,0-0.1,0c-0.1,0-0.2,0-0.2,0c0.2,0-0.1,0-0.1,0c-0.1,0-0.1,0-0.2-0.1h-0.1c-0.1,0,0.1,0.1,0,0c-0.1,0-0.1-0.1-0.2-0.1
				s-0.1-0.1-0.2-0.1c0,0-0.1-0.1,0,0c0,0-0.1,0-0.1-0.1c-0.1-0.1-0.1-0.1-0.2-0.2c0,0,0,0-0.1-0.1c0,0-0.1-0.1,0,0
				c-0.1-0.1-0.2-0.2-0.2-0.4c0,0-0.1-0.1,0-0.1c0,0.1,0-0.1,0-0.1c0-0.1,0-0.2-0.1-0.2c0,0,0-0.2,0-0.1c0,0.1,0-0.1,0-0.1
				c0-0.1,0-0.1,0-0.2V131c0-0.1,0,0.1,0,0s0-0.1,0.1-0.2v-0.1c0-0.1-0.1,0.1,0,0l0.1-0.1c0-0.1,0.1-0.1,0.1-0.2
				c-0.1,0.1,0,0,0.1-0.1c0-0.1,0.1-0.1,0.2-0.1c0,0,0,0,0.1-0.1c-0.1,0.1-0.1,0,0,0c0.1-0.1,0.2-0.2,0.4-0.2h0.1c-0.1,0.1,0,0,0,0
				c0.1,0,0.1,0,0.2-0.1c0.1,0,0.1,0,0.2-0.1h0.1c0,0,0,0,0.1,0c0,0,0,0-0.1,0h0.2c0.1,0,0.2,0,0.3,0h0.1c0.1,0-0.1,0,0,0
				s0.1,0,0.2,0h0.1c0,0,0.2,0,0.1,0s0,0,0,0s0.1,0,0.1,0.1c0.1,0,0.1,0.1,0.2,0.1c-0.1-0.1,0,0,0,0l0.1,0.1c0-0.3-0.1-0.5-0.1-0.8
				c-0.5,0.8-0.9,1.7-1.4,2.5c-0.2,0.3-0.1,0.7,0.2,0.9C259.1,133,259.5,132.9,259.7,132.6L259.7,132.6z"/>
		</g>
	</g>
	<g class="st2">
		<g>
			<path d="M301.3,130.6c-0.4,2.7,3.5,4,5.2,2.1c1-1.1,0.9-2.8,0.1-4c-0.8-1.4-2.3-2.2-3.9-2.1c-2,0.1-3.7,1.4-4.8,3
				c-0.5,0.7,0.6,1.3,1.1,0.6c1.3-1.9,4.3-3.5,6.2-1.5c0.7,0.7,1.1,1.8,0.7,2.7c-0.3,0.7-1.1,1-1.8,0.9c-0.4-0.1-0.8-0.2-1.1-0.5
				c-0.3-0.3-0.4-0.6-0.4-0.9c0.1-0.3-0.1-0.7-0.4-0.8C301.8,130.1,301.4,130.2,301.3,130.6L301.3,130.6z"/>
		</g>
	</g>
	<g class="st2">
		<g>
			<path d="M284.8,266.2c0.8,0,0.8-1.3,0-1.3C284,264.9,284,266.2,284.8,266.2L284.8,266.2z"/>
		</g>
	</g>
	<g class="st2">
		<g>
			<path d="M283.2,233.5c-0.5,18.1-0.7,36.3-0.7,54.4c0,18.2,0.4,36.3,1,54.4c0.3,10.3,0.8,20.5,1.3,30.8c0,0.8,1.3,0.8,1.3,0
				c-0.9-18.1-1.5-36.3-1.9-54.4s-0.4-36.3-0.3-54.4c0.1-10.3,0.3-20.6,0.6-30.8C284.4,232.6,283.2,232.6,283.2,233.5L283.2,233.5z"
				/>
		</g>
	</g>
	<g class="st2">
		<g>
			<path d="M278.2,253.3c-0.4-2.9-0.9-5.7-1.3-8.6c-0.1-0.7-1.3-0.5-1.2,0.2c1.3,19.2,2.5,38.5,3.8,57.7c1.3,19.3,2.5,38.6,3.8,58
				c0.7,10.9,1.4,21.7,2.1,32.6c0.1,0.8,1.3,0.8,1.3,0c-1.3-19.2-2.5-38.5-3.8-57.7c-1.3-19.3-2.5-38.6-3.8-58
				c-0.7-10.9-1.4-21.7-2.1-32.6c-0.4,0.1-0.8,0.1-1.2,0.2c0.4,2.9,0.9,5.7,1.3,8.6C277.1,254.5,278.3,254.1,278.2,253.3
				L278.2,253.3z"/>
		</g>
	</g>
	<g class="st2">
		<g>
			<path d="M208.5,262.9c19.7-6.5,39.4-12.9,59.1-19.4c-0.1-0.4-0.2-0.8-0.3-1.2c-22.4,9.2-44.8,18.4-67.3,27.6
				c-6.3,2.6-12.6,5.2-18.9,7.8c0.2,0.4,0.3,0.8,0.5,1.1c17.9-10.7,37-19.3,56.2-27.4c5.4-2.3,10.9-4.5,16.3-6.7
				c0.7-0.3,0.4-1.5-0.3-1.2c-17.2,6.4-34.4,12.7-51.6,19.1c-4.9,1.8-9.8,3.6-14.7,5.4c-0.7,0.3-0.4,1.5,0.3,1.2
				c17.2-6.4,34.4-12.7,51.6-19.1c4.9-1.8,9.8-3.6,14.7-5.4c-0.1-0.4-0.2-0.8-0.3-1.2c-19.3,7.9-38.7,15.9-57.2,25.5
				c-5.3,2.7-10.5,5.6-15.6,8.7c-0.6,0.3-0.2,1.4,0.5,1.1c22.4-9.2,44.8-18.4,67.3-27.6c6.3-2.6,12.6-5.2,18.9-7.8
				c0.7-0.3,0.5-1.5-0.3-1.2c-19.7,6.5-39.4,12.9-59.1,19.4C207.4,262,207.7,263.2,208.5,262.9L208.5,262.9z"/>
		</g>
	</g>
	<g class="st2">
		<g>
			<path d="M148,190c13.7,22.3,16.6,48.9,23.1,73.9c1.8,7,3.9,13.9,6.6,20.7c0.3,0.7,1.5,0.4,1.2-0.3c-9.8-26-17.9-52.7-24.1-79.9
				c-1.7-7.6-3.3-15.2-4.7-22.9c-0.1-0.7-1.2-0.5-1.2,0.2c-0.4,4.9,0.3,9.7,2,14.3c0.3,0.7,1.5,0.4,1.2-0.3c-1.7-4.5-2.3-9.2-2-14
				c-0.4,0.1-0.8,0.1-1.2,0.2c5.1,27.4,12.1,54.4,20.9,80.7c2.5,7.4,5.1,14.7,7.9,22c0.4-0.1,0.8-0.2,1.2-0.3
				c-9.7-24.3-11.6-50.8-20.6-75.3c-2.5-6.8-5.5-13.4-9.3-19.5C148.7,188.7,147.6,189.3,148,190L148,190z"/>
		</g>
	</g>
	<g class="st2">
		<g>
			<path d="M157.2,177.4c9.9-3.6,19.5-8.1,28.6-13.5c0.6-0.3,0.3-1.1-0.3-1.2c-1.4-0.1-2.9-0.2-4.3-0.2c0.2,0.3,0.4,0.6,0.5,0.9
				c4.5-6.3,6.1-14.2,4.6-21.8c-0.2-0.8-1.4-0.5-1.2,0.3c1.4,7.2-0.2,14.8-4.5,20.8c-0.3,0.4,0.1,0.9,0.5,0.9
				c1.4,0.1,2.9,0.2,4.3,0.2c-0.1-0.4-0.2-0.8-0.3-1.2c-9,5.4-18.4,9.8-28.3,13.4C156.1,176.5,156.5,177.7,157.2,177.4L157.2,177.4z
				"/>
		</g>
	</g>
	<g class="st2">
		<g>
			<path d="M179.5,141.5c-3.3,2.5-5.8,5.9-7.2,9.8c-0.3,0.8,0.9,1.1,1.2,0.3c1.3-3.5,3.6-6.7,6.6-9c0.3-0.2,0.4-0.5,0.2-0.9
				C180.2,141.5,179.7,141.3,179.5,141.5L179.5,141.5z"/>
		</g>
	</g>
	<g class="st2">
		<g>
			<path d="M172.8,148.3c-0.9-11.3-3.7-22.8-8.6-33c-0.8-1.8-2.1-3.7-4.2-4c-1.8-0.3-3.3,0.7-4.3,2.1c-1.2,1.8-1.7,3.9-2.1,5.9
				c-0.5,2.4-0.8,4.8-1,7.3c-0.3,5.4,0.5,11,3.7,15.4c0.4-0.2,0.7-0.4,1.1-0.6c-6-8.1-11.3-16.8-15.8-25.9c-0.2-0.4-0.9-0.4-1.1,0
				c-4.4,9-4.5,19.7-0.3,28.8c0.3-0.3,0.7-0.5,1-0.8c-5.1-4.7-10.2-9.4-15.3-14.2c-0.3-0.3-0.9-0.2-1,0.3c-1.8,8.8,2.2,18.2,9.8,23
				c0.3,0.2,0.7,0.1,0.9-0.2c0.8-1.4-1.7-2.1-2-0.4c-0.2,1.2,0.3,2.6,0.6,3.8c0.3,1.6,0.6,3.2,1,4.7c1.5,6.1,3.5,12,6,17.7
				c0.3,0.7,1.4,0.1,1.1-0.6c-1.8-4.1-3.4-8.3-4.6-12.7c-0.6-2.1-1.1-4.2-1.6-6.3c-0.2-1.1-0.5-2.1-0.7-3.2
				c-0.1-0.5-0.2-1.1-0.3-1.6c-0.1-0.3-0.1-0.6-0.2-0.9c0-0.5-0.1-0.9-0.4-1.2c0.3-0.1,0.6-0.1,0.9-0.2c-7.1-4.5-10.9-13.4-9.2-21.6
				c-0.3,0.1-0.7,0.2-1,0.3c5.1,4.7,10.2,9.4,15.3,14.2c0.5,0.5,1.3-0.1,1-0.8c-4-8.7-3.9-19,0.3-27.6c-0.4,0-0.7,0-1.1,0
				c4.5,9.1,9.8,17.7,15.8,25.9c0.5,0.6,1.6,0,1.1-0.6c-2.6-3.6-3.6-8-3.6-12.4c0-4.1,0.4-8.7,1.8-12.6c0.6-1.6,1.7-3.9,3.7-3.9
				c2.2,0,3.4,2.6,4.2,4.4c2.1,4.7,3.8,9.6,5.1,14.5c1.5,5.6,2.4,11.2,2.9,17C171.6,149.1,172.9,149.1,172.8,148.3L172.8,148.3z"/>
		</g>
	</g>
	<g class="st2">
		<g>
			<path d="M291.2,235.8c12.3,13.5,24.6,27,36.9,40.5c3.5,3.8,6.9,7.6,10.4,11.4c0.6,0.6,1.4-0.3,0.9-0.9
				c-10.1-12.9-20.8-25.4-32.1-37.4c-3.2-3.4-6.4-6.7-9.7-10c-0.3,0.3-0.6,0.6-0.9,0.9c10.8,10.7,21.6,21.4,32.3,32
				c9.5,9.4,19.2,18.7,27.6,29.2c4.6,5.8,8.8,12.1,12.1,18.8c0.4,0.7,1.4,0.1,1.1-0.6c-5.9-11.8-14.3-22-23.3-31.5
				c-9.9-10.4-20.3-20.4-30.5-30.5c-6.1-6.1-12.3-12.1-18.4-18.2c-0.6-0.6-1.5,0.3-0.9,0.9c11.6,11.6,22.6,23.8,33.1,36.5
				c2.9,3.6,5.8,7.2,8.7,10.9c0.3-0.3,0.6-0.6,0.9-0.9c-12.3-13.5-24.6-27-36.9-40.5c-3.5-3.8-6.9-7.6-10.4-11.4
				C291.6,234.4,290.7,235.2,291.2,235.8L291.2,235.8z"/>
		</g>
	</g>
	<g class="st2">
		<g>
			<path d="M360.5,314.6c-1.7,16.7-3.6,33.4-5,50.1c-0.4,4.7-0.6,9.4-0.3,14.1c0.1,0.8,1.3,0.8,1.3,0c-0.5-8.3,0.5-16.6,1.4-24.8
				c0.8-8.4,1.7-16.8,2.5-25.1c0.5-4.8,1-9.5,1.4-14.3C361.8,313.8,360.6,313.8,360.5,314.6L360.5,314.6z"/>
		</g>
	</g>
	<g class="st2">
		<g>
			<path d="M355.6,325.8c-0.7,17.4-1.5,34.8-2.2,52.3c-0.2,5-0.4,10-0.6,14.9c0,0.7,1,0.8,1.2,0.2c1.5-4.3,1.8-8.8,1.8-13.3
				c0-4.9-0.1-9.8-0.1-14.7c-0.1-9.9-0.2-19.8-0.2-29.8c0-5.6-0.1-11.2-0.1-16.9c0-0.8-1.3-0.8-1.3,0c0.1,19.6,0.3,39.2,0.4,58.8
				c0,5.2,0,10.5-1.7,15.5c0.4,0.1,0.8,0.1,1.2,0.2c0.7-17.4,1.5-34.8,2.2-52.3c0.2-5,0.4-10,0.6-14.9
				C356.9,325,355.7,325,355.6,325.8L355.6,325.8z"/>
		</g>
	</g>
	<g class="st2">
		<g>
			<path d="M233.6,156.8c24.2-3.4,48.6-5.3,73.1-5.9c6.9-0.2,13.8-0.2,20.7-0.1c0.8,0,0.8-1.2,0-1.3c-24.7-0.2-49.3,1-73.9,3.6
				c-6.8,0.7-13.5,1.6-20.2,2.5C232.5,155.7,232.8,156.9,233.6,156.8L233.6,156.8z"/>
		</g>
	</g>
	<g class="st2">
		<g>
			<path d="M232.6,162.8c10.4,10.4,26.5,13.4,40.7,13.2c14.1-0.2,28.2-4,40.6-10.8c7-3.9,13.4-8.8,19-14.5c0.6-0.6-0.3-1.5-0.9-0.9
				c-9.7,10-21.9,17.3-35.2,21.3c-13.3,4.1-27.6,4.9-41.2,1.9c-8.2-1.8-16.1-5.1-22.1-11.1C232.9,161.4,232,162.3,232.6,162.8
				L232.6,162.8z"/>
		</g>
	</g>
</g>
<g id="Layer_7" class="st1">
	<rect x="112.2" y="68.7" class="st6" width="279" height="333"/>
	<polygon class="st7" points="328.2,143.2 166.2,185.7 157.2,149.7 319.2,113.7 	"/>
	<circle class="st8" cx="170.7" cy="298.2" r="40.5"/>
	<circle class="st8" cx="328.2" cy="284.7" r="36"/>
	<g class="st2">
		<g>
			<path d="M110.6,64.1c-0.3,17.8-0.6,35.6-0.9,53.4c-0.3,17.9-0.6,35.8-0.9,53.7c-0.2,10.1-0.4,20.1-0.5,30.2c0,0.8,1.2,0.8,1.3,0
				c0.3-17.8,0.6-35.6,0.9-53.4c0.3-17.9,0.6-35.8,0.9-53.7c0.2-10.1,0.4-20.1,0.5-30.2C111.8,63.2,110.6,63.2,110.6,64.1
				L110.6,64.1z"/>
		</g>
	</g>
	<g class="st2">
		<g>
			<path d="M106,82.4c3.5,41.1,6.4,82.3,8.6,123.4c2.2,41,3.7,82,4.5,123c0.5,23,0.7,46.1,0.8,69.1c0,0.8,1.3,0.8,1.3,0
				c-0.1-41.2-0.9-82.5-2.3-123.7c-1.4-41-3.5-82-6.3-123c-1.5-23-3.3-45.9-5.3-68.9C107.2,81.6,105.9,81.6,106,82.4L106,82.4z"/>
		</g>
	</g>
	<g class="st2">
		<g>
			<path d="M105,402.2c37,0.1,73.9,0.1,110.9,0.2c36.8,0.1,73.5,0.1,110.3,0.2c10.2,0,20.4,0,30.5,0c9.2,0,18.6-0.2,27.2-3.8
				c0.7-0.3,0.4-1.5-0.3-1.2c-7.9,3.3-16.5,3.7-24.9,3.7c-9,0-18,0-27,0c-18.4,0-36.8-0.1-55.1-0.1c-36.6-0.1-73.2-0.1-109.7-0.2
				c-20.6,0-41.2-0.1-61.8-0.1C104.2,401,104.2,402.2,105,402.2L105,402.2z"/>
		</g>
	</g>
	<g class="st2">
		<path class="st9" d="M396.5,32.7c6.6,123.4,4.3,247.2-7.1,370.2c0.5-2.3,0.9-4.5,1.4-6.8"/>
		<g>
			<path d="M395.9,32.7c2.6,48.2,3.8,96.5,3.7,144.8c-0.2,48-1.7,96.1-4.5,144c-1.6,27.2-3.7,54.3-6.2,81.4
				c-0.1,0.7,1.1,0.9,1.2,0.2c0.5-2.3,0.9-4.5,1.4-6.8c0.2-0.8-1-1.1-1.2-0.3c-0.5,2.3-0.9,4.5-1.4,6.8c0.4,0.1,0.8,0.1,1.2,0.2
				c4.4-48.1,7.5-96.3,9.2-144.6c1.7-48,2-96.1,1-144.1c-0.6-27.2-1.6-54.4-3.1-81.6C397.1,31.9,395.9,31.9,395.9,32.7L395.9,32.7z"
				/>
		</g>
	</g>
	<g class="st2">
		<g>
			<path d="M104.2,75.2c40.3-0.2,80.6-0.6,121-1.4c40.1-0.7,80.2-1.8,120.3-3.1c22.6-0.8,45.2-1.6,67.8-2.5c0.8,0,0.8-1.3,0-1.3
				C373,68.6,332.7,70,292.4,71c-40.1,1.1-80.2,1.9-120.3,2.4c-22.6,0.3-45.3,0.5-67.9,0.5C103.4,73.9,103.4,75.2,104.2,75.2
				L104.2,75.2z"/>
		</g>
	</g>
	<g class="st2">
		<g>
			<path d="M147.4,319.3c0.5,8.5,7,15.2,14.8,18c8.7,3.2,18.2,0.8,25.7-4.3c8.2-5.6,14.5-14.1,18.3-23.3c4-9.5,5.5-20.3,2.9-30.4
				c-2.3-8.5-7.8-16.2-15.2-21.1c-8.2-5.4-18-6.3-27.3-3c-9.7,3.4-18.4,10.2-24.8,18.1c-6.2,7.7-10.4,17.1-11,27
				c-0.7,9.8,2.1,20.1,8.5,27.7c5.9,7,14.8,11.6,24,11.8c2.3,0.1,4.5-0.2,6.8-0.6c0.8-0.2,0.5-1.4-0.3-1.2
				c-8.9,1.8-18.2-0.9-25.2-6.6c-7.4-6-11.6-15-12.4-24.4c-1.7-19.5,10.7-37.4,27.1-46.9c8.5-4.9,18.4-7.3,27.9-3.8
				c8,2.9,14.5,9.4,18.3,16.9c8.8,17.6,1.4,40-11.7,53.4c-6.2,6.3-14.8,11.4-24,11c-8-0.3-16.2-5-19.6-12.4
				c-0.8-1.8-1.3-3.8-1.4-5.9C148.6,318.5,147.4,318.5,147.4,319.3L147.4,319.3z"/>
		</g>
	</g>
	<g class="st2">
		<g>
			<path d="M159.8,144.5c4.8,23,10.5,45.8,17.1,68.3s14.1,44.8,22.4,66.7c2.4,6.2,4.8,12.3,7.3,18.5c1.2,3.1,2.5,6.1,3.8,9.2
				c0.6,1.4,1.1,2.7,1.7,4.1c0.3,0.7,0.7,1.5,0.9,2.2c0.1,0.3,0.3,0.8,0.2,1.1c0.1,0.3-0.1,0.5-0.5,0.6c-0.1-0.3-0.2-0.3-0.3-0.1
				c0.8,0,0.8-1.3,0-1.3c-1.6,0.1-1.2,2-0.1,2.5c1.8,0.9,2.3-1.7,2-2.9c-0.3-1.3-1-2.5-1.5-3.8c-0.7-1.6-1.4-3.2-2-4.9
				c-1.2-3-2.5-6-3.7-9c-4.8-11.8-9.3-23.8-13.6-35.8c-8.6-24.2-16.1-48.8-22.6-73.6c-3.6-14-6.9-28.1-9.9-42.3
				C160.8,143.4,159.6,143.7,159.8,144.5L159.8,144.5z"/>
		</g>
	</g>
	<g class="st2">
		<g>
			<path d="M161.7,147.7c23-4.1,46-8.6,68.8-13.7c22.7-5,45.2-10.5,67.7-16.5c12.7-3.4,25.4-7,38-10.7c0.5-0.2,0.6-0.9,0.1-1.1
				c-1.2-0.8-2.5-1.5-3.7-2.3c-0.7-0.4-1.3,0.7-0.6,1.1c1.2,0.8,2.5,1.5,3.7,2.3c0-0.4,0.1-0.8,0.1-1.1c-22.4,6.6-45,12.7-67.7,18.3
				c-22.5,5.6-45.2,10.7-68,15.2c-12.9,2.6-25.8,5-38.8,7.3C160.6,146.7,160.9,147.9,161.7,147.7L161.7,147.7z"/>
		</g>
	</g>
	<g class="st2">
		<g>
			<path d="M167,183.5c20.5-3.7,40.9-8.4,60.9-14.3c20-5.8,39.7-12.8,59-20.7c10.8-4.4,21.4-9.2,31.9-14.3c0.7-0.4,0.1-1.4-0.6-1.1
				c-18.7,9.1-37.9,17.1-57.5,24.2c-19.6,7-39.5,13-59.7,17.8c-11.3,2.7-22.8,5.1-34.2,7.2C165.9,182.4,166.2,183.6,167,183.5
				L167,183.5z"/>
		</g>
	</g>
	<g class="st2">
		<g>
			<path d="M319.9,109.9c2.1,20.3,4.9,40.5,8.4,60.6c3.5,20.3,7.7,40.4,12.6,60.4c2.7,11.2,5.7,22.4,8.9,33.5
				c0.2,0.8,1.4,0.5,1.2-0.3c-2.7-11-5.4-22.1-8.1-33.1c-0.2-0.8-1.4-0.5-1.2,0.3c2.7,11,5.4,22.1,8.1,33.1c0.4-0.1,0.8-0.2,1.2-0.3
				c-5.6-19.6-10.6-39.5-14.8-59.4c-4.3-20-7.9-40.1-10.8-60.3c-1.6-11.5-3.1-22.9-4.3-34.4C321,109.1,319.8,109,319.9,109.9
				L319.9,109.9z"/>
		</g>
	</g>
	<g class="st2">
		<g>
			<path d="M321.4,141.2c3.7,16.7,7.4,33.3,11.3,50s7.7,33.3,11.7,49.9c2.2,9.4,4.5,18.7,6.7,28c0.2,0.8,1.4,0.5,1.2-0.3
				c-4-16.6-8-33.2-11.9-49.8s-7.7-33.3-11.5-49.9c-2.1-9.4-4.2-18.8-6.3-28.1C322.4,140.1,321.2,140.4,321.4,141.2L321.4,141.2z"/>
		</g>
	</g>
	<g class="st2">
		<g>
			<path d="M334.2,240.9c-9.9-4.8-21.1,1-27.9,8.4c-7.5,8-12.1,19.2-12.6,30.2c-0.4,10.6,3.4,21,11.3,28.3
				c7.2,6.6,17.3,10.4,27.1,8.5c10.8-2,20-10.4,25.2-19.8c5.1-9.2,6.9-20.3,4.5-30.6c-2.3-10.1-8.5-19-16.8-25.2
				c-8.7-6.5-21.5-11-31.7-5.1c-4.8,2.8-8.5,7.1-11.6,11.5c-3.2,4.6-5.6,9.6-7.3,14.9c-3.4,10.4-3.8,21.8-1.1,32.5
				c0.7,2.6,1.5,5.1,2.6,7.6c0.3,0.7,1.5,0.4,1.2-0.3c-8.1-19.3-4.5-43.1,9.4-58.8c3.6-4.1,8.2-7.7,13.7-8.7c5.8-1,12,0.7,17.2,3.2
				c8.9,4.2,16.2,11.7,20.4,20.6c8.9,18.9,1.2,43.3-17.1,53.6c-4.6,2.6-9.6,4-14.9,3.7c-4.7-0.2-9.4-1.7-13.5-4
				c-8.7-4.9-14.8-13.3-16.7-23.1c-2-10.6,0.6-21.7,6.1-30.8c5.1-8.5,14-17,24.6-17.1c2.5,0,5,0.5,7.3,1.6
				C334.3,242.3,334.9,241.2,334.2,240.9L334.2,240.9z"/>
		</g>
	</g>
</g>
<g id="Layer_6" class="st1">
	<rect x="112.2" y="77.7" class="st6" width="279" height="315"/>
	<polygon class="st10" points="355.6,359.5 193.2,374.7 157.2,140.7 337.6,98.5 	"/>
	<g class="st2">
		<g>
			<path d="M108.8,68c-0.9,18.1-1.5,36.3-1.8,54.4c-0.3,18.2-0.4,36.3-0.2,54.5c0.1,10.3,0.3,20.6,0.6,30.8c0,0.8,1.3,0.8,1.3,0
				c-0.5-18.1-0.8-36.3-0.7-54.5c0-18.2,0.3-36.3,0.9-54.5c0.3-10.3,0.7-20.5,1.2-30.8C110.1,67.2,108.8,67.2,108.8,68L108.8,68z"/>
		</g>
	</g>
	<g class="st2">
		<g>
			<path d="M102.5,76.1c2,41.4,3.6,82.9,4.7,124.3c1.1,41.2,1.8,82.5,2.1,123.8c0.2,23.3,0.2,46.5,0.1,69.8c0,0.8,1.2,0.8,1.3,0
				c0.2-41.5,0-82.9-0.7-124.4c-0.7-41.3-1.7-82.5-3.3-123.7c-0.9-23.3-1.8-46.5-3-69.8C103.7,75.3,102.4,75.3,102.5,76.1
				L102.5,76.1z"/>
		</g>
	</g>
	<g class="st2">
		<g>
			<path d="M114.6,402.1c37.3-2.1,74.6-3.7,111.9-5c37.3-1.2,74.6-2,112-2.4c20.9-0.2,41.9-0.3,62.8-0.2c0.8,0,0.8-1.2,0-1.3
				c-37.3-0.1-74.7,0.2-112,0.9c-37.3,0.7-74.6,1.9-111.9,3.5c-20.9,0.9-41.9,1.9-62.8,3.1C113.8,400.8,113.8,402.1,114.6,402.1
				L114.6,402.1z"/>
		</g>
	</g>
	<g class="st2">
		<g>
			<path d="M374.6,72.9c3.9,42,7,84.1,9.4,126.2c2.4,41.9,4,83.9,4.8,125.8c0.5,23.6,0.7,47.1,0.7,70.7c0,0.8,1.3,0.8,1.3,0
				c0-42.2-0.8-84.4-2.3-126.5c-1.5-41.9-3.8-83.9-6.9-125.7c-1.7-23.5-3.7-47-5.8-70.4C375.8,72.1,374.5,72.1,374.6,72.9
				L374.6,72.9z"/>
		</g>
	</g>
	<g class="st2">
		<g>
			<path d="M92.9,81.1c42.7-0.6,85.4-1.2,128-4.6c42-3.3,83.9-8.8,126-11.1c23.7-1.3,47.4-1.6,71,0c0.8,0.1,0.8-1.2,0-1.3
				c-42.3-2.8-84.6,0.4-126.7,4.4c-20.9,2-41.8,4.2-62.7,6c-21.2,1.8-42.5,3-63.8,3.8c-23.9,0.8-47.9,1.2-71.9,1.5
				C92.1,79.9,92.1,81.2,92.9,81.1L92.9,81.1z"/>
		</g>
	</g>
	<g class="st2">
		<g>
			<path d="M155.5,135.5c2.5,31.8,5.7,63.6,9.6,95.3c3.9,31.4,8.6,62.8,14,94c3,17.6,6.3,35.1,9.8,52.7c0.2,0.8,1.4,0.5,1.2-0.3
				c-6.2-31.2-11.8-62.5-16.5-93.9c-4.8-31.4-8.8-62.8-12.1-94.4c-1.8-17.8-3.5-35.5-4.8-53.3C156.7,134.7,155.4,134.7,155.5,135.5
				L155.5,135.5z"/>
		</g>
	</g>
	<g class="st2">
		<g>
			<path d="M150.1,142.4c21.4-6.2,43-12,64.6-17.2c21.7-5.3,43.4-10.1,65.3-14.5c12.3-2.4,24.6-4.7,36.9-6.9
				c0.8-0.1,0.5-1.3-0.3-1.2c-22,3.8-43.8,8.1-65.6,12.9s-43.5,10-65,15.7c-12.1,3.2-24.2,6.5-36.2,10
				C149,141.4,149.3,142.6,150.1,142.4L150.1,142.4z"/>
		</g>
	</g>
	<g class="st2">
		<g>
			<path d="M328.3,89.7c3.3,36,6.6,71.9,9.9,107.9c3.3,35.8,6.6,71.6,9.9,107.3c1.9,20.1,3.7,40.2,5.6,60.2c0.1,0.8,1.3,0.8,1.3,0
				c-3.3-36-6.6-71.9-9.9-107.9c-3.3-35.8-6.6-71.6-9.9-107.3c-1.9-20.1-3.7-40.2-5.6-60.2C329.5,88.9,328.2,88.9,328.3,89.7
				L328.3,89.7z"/>
		</g>
	</g>
	<g class="st2">
		<g>
			<path d="M216.2,373.8c22.1-3.5,44.4-6.2,66.7-8.3c22.2-2.1,44.5-3.4,66.8-4.1c12.5-0.4,25-0.5,37.5-0.5c0.8,0,0.8-1.2,0-1.3
				c-5.5-0.6-10.7-2.6-15.3-5.7c-0.7-0.5-1.3,0.6-0.6,1.1c4.8,3.2,10.2,5.2,16,5.8c0-0.4,0-0.8,0-1.3c-22.4-0.1-44.8,0.5-67.1,1.7
				c-22.3,1.3-44.6,3.3-66.9,5.9c-12.5,1.5-24.9,3.2-37.3,5.2C215.1,372.8,215.4,374,216.2,373.8L216.2,373.8z"/>
		</g>
	</g>
	<g class="st2">
		<g>
			<path d="M170.2,156.5c2.2,13.5,4.5,27,6.7,40.5c0.1,0.7,1.3,0.5,1.2-0.2c-0.9-7.9-2.4-15.7-4.5-23.3c-0.2-0.8-1.4-0.4-1.2,0.3
				c0.8,3.1,2.5,5.7,5.1,7.5c0.3,0.2,0.7,0,0.9-0.2c3.9-5.9,6-12.8,6.2-19.9c-0.4,0.1-0.8,0.1-1.2,0.2c2.4,7.3,5.4,14.4,8.8,21.3
				c0.2,0.4,0.9,0.4,1.1,0c2.8-5.9,4.1-12.4,3.8-18.9c-0.4,0-0.8,0-1.3,0c0.3,6.2,2.4,12.1,6,17.1c0.3,0.4,0.8,0.4,1.1,0
				c2.5-4.6,3.7-9.6,3.8-14.8c-0.4,0.1-0.8,0.2-1.2,0.3c1.5,2.5,2.9,4.9,4.4,7.4c0.2,0.3,0.6,0.4,0.9,0.2c1.4-1,2.4-2.3,3.4-3.7
				c1.1-1.5,2.2-3.3,3.8-4.4c1.8-1.2,7.2-0.8,6.2,2.4c-0.2,0.6,0.6,1,1,0.6c4.1-3.8,7-8.7,8.3-14.1c-0.4,0-0.8,0.1-1.1,0.1
				c2,3.8,6.4,6.1,10.7,5.3c4.4-0.8,7.7-4.7,8.1-9.1c-0.4,0.1-0.8,0.1-1.2,0.2c2.5,7,13.2,9.6,18,3.5c0.7-0.9,1.4-1.9,2.1-2.8
				c0.7-0.8,1.6-2,2.8-2.2c1.5-0.3,2,1.3,2.7,2.3c0.6,0.8,1.4,1.5,2.4,1.8c5.2,1.6,8.3-4,11.7-6.7c4.4-3.4,11.3-2.4,14.6,2.1
				c0.5,0.6,1.6,0,1.1-0.6c-2.5-3.4-6.8-5.2-11.1-4.6c-2.2,0.3-4.1,1.1-5.8,2.6c-2,1.7-3.5,4.2-5.9,5.5c-1,0.6-2.3,0.9-3.5,0.8
				c-1.6-0.2-2.3-1.2-3.1-2.5c-1-1.6-2.7-2.3-4.5-1.3c-1.8,1.1-3,3.1-4.3,4.8s-3,2.7-5,3c-4.3,0.7-9.4-1.5-10.9-5.8
				c-0.2-0.7-1.2-0.5-1.2,0.2c-0.4,3.9-3.4,7.3-7.3,7.9c-3.7,0.6-7.5-1.5-9.2-4.7c-0.2-0.5-1-0.4-1.1,0.1c-1.2,5.2-4,9.9-7.9,13.6
				c0.3,0.2,0.7,0.4,1,0.6c1-3.4-3.2-5-5.9-4.6c-4.6,0.7-6,6.3-9.4,8.8c0.3,0.1,0.6,0.1,0.9,0.2c-1.5-2.5-2.9-4.9-4.4-7.4
				c-0.3-0.5-1.2-0.3-1.2,0.3c0,5-1.3,9.8-3.6,14.1c0.4,0,0.7,0,1.1,0c-3.5-4.8-5.6-10.5-5.8-16.5c0-0.8-1.3-0.8-1.3,0
				c0.2,6.3-1,12.6-3.7,18.3c0.4,0,0.7,0,1.1,0c-3.4-6.8-6.3-13.8-8.7-21c-0.2-0.7-1.2-0.6-1.2,0.2c-0.2,6.9-2.3,13.5-6,19.2
				c0.3-0.1,0.6-0.1,0.9-0.2c-2.3-1.7-3.8-4-4.5-6.8c-0.4,0.1-0.8,0.2-1.2,0.3c2,7.6,3.5,15.2,4.4,23c0.4-0.1,0.8-0.1,1.2-0.2
				c-2.2-13.5-4.5-27-6.7-40.5C171.3,155.4,170.1,155.8,170.2,156.5L170.2,156.5z"/>
		</g>
	</g>
	<g class="st2">
		<g>
			<path d="M188.1,212.6c0.3,4.8,0.5,9.5,0.8,14.3c0,0.7,1.1,0.9,1.2,0.2c1.7-6.8,3.8-13.5,6.2-20.1c-0.4,0-0.8,0-1.2,0
				c1.6,4,3.9,7.7,6.8,10.9c0.2,0.2,0.7,0.2,0.9,0c4.9-5.4,8.3-11.8,10-18.9c-0.2,0.2-0.4,0.3-0.6,0.5c2.3-0.1,3.1,3.4,4,5
				c1.3,2.1,3.4,3.2,5.9,2.4c2.7-0.9,4.6-3.2,6-5.5c1.6-2.5,3.4-5.8,6.7-6.1c-0.2-0.3-0.4-0.5-0.6-0.8c-0.7,4.7,5.1,8.5,8.9,5.6
				c1.7-1.3,2.7-3.3,3.8-5.1c0.9-1.6,2.1-4,4.3-4c2.8-0.1,4.4,3.4,6.6,4.7c2.3,1.3,5.1,1.1,7.5,0.2c2.7-1.1,5.2-2.9,7.2-5
				c1.1-1.1,2.1-2.7,3.7-3.2c1.8-0.6,3.6,0.7,5.2,1.3c6.4,2.2,13.6,0.7,18.8-3.5c0.6-0.5-0.3-1.4-0.9-0.9
				c-4.6,3.8-11.1,5.1-16.8,3.4c-2.6-0.8-5.1-2.6-7.7-0.9c-1.1,0.7-1.9,1.8-2.8,2.7c-1,1.1-2.2,2.1-3.4,3c-2.3,1.6-5.1,3.1-8,2.7
				c-2.9-0.4-4.2-2.9-6.4-4.5c-1.6-1.2-3.6-1.5-5.2-0.4c-1.5,1-2.4,2.7-3.3,4.2c-1.1,1.9-2.4,4.7-4.8,5.2c-2.8,0.6-6-2.1-5.5-5
				c0.1-0.4-0.2-0.8-0.6-0.8c-6.4,0.4-7.2,8.7-12.3,11.3c-1.5,0.7-3.1,0.9-4.4-0.3c-0.9-0.8-1.3-2-1.9-3c-0.9-1.8-1.9-3.9-4.1-3.8
				c-0.3,0-0.5,0.2-0.6,0.5c-1.6,6.8-4.9,13.1-9.6,18.3c0.3,0,0.6,0,0.9,0c-2.7-3.1-4.9-6.6-6.4-10.4c-0.2-0.6-1-0.6-1.2,0
				c-2.5,6.6-4.5,13.3-6.2,20.1c0.4,0.1,0.8,0.1,1.2,0.2c-0.3-4.8-0.5-9.5-0.8-14.3C189.3,211.8,188,211.7,188.1,212.6L188.1,212.6z
				"/>
		</g>
	</g>
	<g class="st2">
		<g>
			<path d="M186.3,256.1c1.4,5.6,2.9,11.1,4.3,16.7c0.2,0.7,1.3,0.5,1.2-0.2c-0.9-8.3-1.9-16.6-2.8-24.8c-0.4,0.1-0.8,0.1-1.2,0.2
				c1.9,7.2,5.3,13.9,9.8,19.8c0.3,0.4,1,0.4,1.1-0.1c3.1-9.6,5.8-19.2,8-29.1c-0.4,0-0.8,0.1-1.1,0.1c3.7,5.7,6.8,11.8,9.3,18.1
				c0.2,0.4,0.7,0.6,1,0.3c5.4-5.1,8.9-12,9.7-19.4c-0.4,0.1-0.8,0.2-1.2,0.3c2.8,4.9,5.6,9.8,8.4,14.8c0.2,0.4,0.9,0.4,1.1,0
				c3.4-6.5,6.9-13,10.3-19.6c-0.4,0-0.7,0-1.1,0c3,5.3,6,10.7,9,16c0.2,0.4,0.9,0.4,1.1,0c2.1-3.9,4.3-7.7,6.4-11.6
				c1-1.8,1.9-3.7,3-5.4c1.3-1.9,3.3-2,4.6-0.1c1.9,2.7,0.9,6.5,3.5,8.8c2.1,1.9,5.2,1.5,7.5,0.3c3-1.6,4.4-4.9,5.8-7.8
				c0.7-1.5,1.5-3.7,3.1-4.5c1.5-0.7,2.6,0.5,3.4,1.6c1.5,2.1,2.6,4.8,5.4,5.5c2.9,0.7,6-0.6,8-2.6c1.4-1.3,2.5-3,3.6-4.6
				c1-1.5,2.5-4.7,4.6-4.9c1.3-0.1,2.3,1.2,3.1,2c0.8,0.9,1.7,1.7,2.5,2.6c1.7,1.8,3.5,3.5,5.2,5.3c0.6,0.6,1.5-0.3,0.9-0.9
				c-1.6-1.6-3.2-3.2-4.7-4.8c-1.5-1.5-2.9-3.2-4.6-4.5c-3.3-2.5-5.7,1-7.4,3.6c-2.1,3.1-4.2,6.7-8.1,7.6c-1.8,0.4-3.7,0-5-1.4
				c-1-1.1-1.6-2.4-2.4-3.6c-1.4-2-3.8-3.2-5.9-1.3c-1.2,1.1-1.9,2.8-2.7,4.3c-0.8,1.7-1.6,3.4-2.7,4.9c-2,2.7-7,5.2-9.4,1.6
				c-1.9-2.9-0.8-6.8-3.8-9.1c-3.6-2.7-5.9,2.1-7.4,4.6c-2.5,4.6-5,9.2-7.6,13.8c0.4,0,0.7,0,1.1,0c-3-5.3-6-10.7-9-16
				c-0.2-0.4-0.9-0.4-1.1,0c-3.4,6.5-6.9,13-10.3,19.6c0.4,0,0.7,0,1.1,0c-2.8-4.9-5.6-9.8-8.4-14.8c-0.3-0.6-1.1-0.3-1.2,0.3
				c-0.8,7.1-4.2,13.6-9.4,18.5c0.3,0.1,0.7,0.2,1,0.3c-2.5-6.4-5.7-12.6-9.4-18.4c-0.3-0.4-1-0.4-1.1,0.1c-2.2,9.8-4.9,19.5-8,29.1
				c0.4,0,0.8-0.1,1.1-0.1c-4.5-5.8-7.8-12.4-9.7-19.5c-0.2-0.7-1.3-0.6-1.2,0.2c0.9,8.3,1.9,16.6,2.8,24.8c0.4-0.1,0.8-0.1,1.2-0.2
				c-1.4-5.6-2.9-11.1-4.3-16.7C187.3,255,186.1,255.3,186.3,256.1L186.3,256.1z"/>
		</g>
	</g>
	<g class="st2">
		<g>
			<path d="M194.5,294.4c0.3,4.8,0.6,9.5,0.8,14.3c0.4,0,0.8,0,1.3,0c-0.4-6.8-0.8-13.7-1.2-20.5c-0.4,0-0.8,0-1.3,0
				c0.7,8.4,3,16.5,7,23.9c0.3,0.5,1,0.3,1.1-0.1c2.4-6.3,3.4-13,3-19.7c-0.4,0.1-0.8,0.2-1.2,0.3c1.8,3.4,3.5,6.9,5.3,10.3
				c1,2,3,4.5,5.5,3.2c1.1-0.6,1.8-1.7,2.3-2.7c0.7-1.5,1.3-3.2,2-4.8c1.5-3.7,2.9-7.4,4.4-11.1c-0.4,0-0.8,0.1-1.1,0.1
				c1.8,3.9,3.6,7.7,5.4,11.6c1,2.2,2.6,5.3,5.6,3.8c2.9-1.5,3.9-5.2,5-7.9c1.6-3.9,3.3-7.8,4.9-11.7c-0.2,0.1-0.5,0.2-0.7,0.3
				c3.4,1.1,4.5,5,6.1,7.8c1.4,2.4,4,5.2,7.1,4.8c1.5-0.2,2.7-1.2,3.6-2.3c1.3-1.5,2.4-3.2,3.5-4.8c2.7-3.7,5.4-7.4,8.1-11.1
				c-0.2,0.1-0.5,0.2-0.7,0.3c3.8,1,4.7,5.4,6.4,8.3c1.5,2.6,4.2,5.6,7.5,4.8c1.6-0.4,2.8-1.7,3.8-3c1.3-1.8,2.5-3.6,3.7-5.5
				c2.3-3.9,4.3-8,5.9-12.2c-0.3,0.1-0.6,0.2-0.9,0.4c5.1,2.4,5,9.4,9.3,12.6c2.5,1.9,5.6,1.7,8.3,0.4c3.2-1.6,5.4-4.4,7.6-7.2
				c2.4-3,5.2-6.4,9.3-6.8c-0.2-0.2-0.4-0.3-0.6-0.5c1.1,3.7,1.2,7.5,0.3,11.2c-0.2,0.8,1,1.1,1.2,0.3c0.9-3.9,0.8-8-0.3-11.8
				c-0.1-0.2-0.3-0.5-0.6-0.5c-7,0.6-9.8,7.9-14.4,12c-2.6,2.3-6.5,4.3-9.8,2.1c-2.2-1.5-3.3-4.2-4.4-6.6c-1.2-2.5-2.6-5.1-5.2-6.3
				c-0.4-0.2-0.8,0-0.9,0.4c-1.5,4-3.4,7.9-5.5,11.6c-1,1.7-2,3.3-3.2,4.9c-1.1,1.6-2.4,3.6-4.6,3.6c-3.6,0-5.4-4.4-6.7-7.1
				c-1.2-2.6-2.8-5.3-5.8-6.1c-0.3-0.1-0.5,0.1-0.7,0.3c-2.4,3.3-4.8,6.6-7.3,9.9c-1.2,1.6-2.4,3.3-3.6,4.9
				c-1.1,1.5-2.5,3.1-4.5,2.7c-3.4-0.6-4.9-4.4-6.2-7c-1.2-2.4-2.7-4.7-5.4-5.5c-0.2-0.1-0.6,0-0.7,0.3c-1.4,3.2-2.7,6.4-4.1,9.7
				c-0.7,1.6-1.3,3.1-2,4.7c-0.6,1.4-1.2,2.8-2.2,3.9c-1.1,1.2-2.7,1.7-3.8,0.2c-0.9-1.2-1.4-2.8-2.1-4.2c-1.5-3.3-3.1-6.7-4.6-10
				c-0.3-0.5-1-0.3-1.1,0.1c-1.2,3-2.4,6.1-3.6,9.1c-0.6,1.4-1.1,2.9-1.7,4.3c-0.5,1.3-0.9,2.7-1.8,3.7c-2.5,3-4.6-1.8-5.6-3.7
				c-1.5-2.9-2.9-5.7-4.4-8.6c-0.3-0.5-1.2-0.3-1.2,0.3c0.4,6.6-0.7,13.2-3,19.4c0.4,0,0.8-0.1,1.1-0.1c-3.8-7.2-6.1-15.1-6.8-23.3
				c-0.1-0.8-1.3-0.8-1.3,0c0.4,6.8,0.8,13.7,1.2,20.5c0,0.8,1.3,0.8,1.3,0c-0.3-4.8-0.6-9.5-0.8-14.3
				C195.7,293.6,194.5,293.6,194.5,294.4L194.5,294.4z"/>
		</g>
	</g>
	<g class="st2">
		<g>
			<path d="M207.8,340.2c0.1,6.7,1.1,13.4,3,19.9c0.2,0.7,1.2,0.5,1.2-0.2c0.7-7.7-0.3-15.5-2.9-22.7c-0.3-0.8-1.4-0.5-1.2,0.3
				c0.5,2.2,1.1,4.4,1.6,6.6c0.5,2,0.9,4.1,1.5,6.1c0.4,1.2,1,2.6,2.3,3.1c1.4,0.6,2.8,0,3.9-0.8c4.4-3.1,4.9-9.2,6.2-14
				c0.8-3,2-6,4.7-7.7c-0.3-0.1-0.6-0.1-0.9-0.2c1.8,3.7,3.6,7.4,5.4,11.1c1.2,2.4,2.3,6,4.9,7.3c2.6,1.3,5.3-0.7,7.2-2.4
				c2.2-2,4-4.4,5.5-6.9c1.6-2.5,2.9-5.2,4.5-7.7c0.8-1.3,1.5-2.5,2.4-3.7c0.8-1.1,2.3-3.7,3.9-3.3c1.5,0.4,2.2,2.7,2.8,3.9
				c0.9,1.9,1.8,3.8,2.7,5.7c0.7,1.5,1.3,3,2.1,4.4c0.6,1.1,1.6,2.1,2.9,2.3c3.1,0.3,4.9-3.2,6-5.5c2-4.2,4-8.4,6.1-12.5
				c-0.2,0.1-0.5,0.2-0.7,0.3c2.2,0.7,3.3,2.9,4.1,4.9c0.8,1.9,1.4,4,2.6,5.7c3.1,4.5,8.9,3.5,12.3-0.2c2.2-2.3,3.3-5.4,4.5-8.2
				c0.6-1.5,1.2-3.2,2.3-4.5c1.3-1.4,3-1.1,4.3,0c4,3.4,2.1,10.7,7,13.3c2.5,1.3,5.5,0.3,7.4-1.6c2.5-2.5,2.9-6.2,3.4-9.5
				c0.1-0.8-1.2-0.8-1.3,0c-0.4,3.1-0.8,6.8-3.4,9c-2.3,2-5.6,2-7.3-0.7c-1.4-2.2-1.4-4.8-2.2-7.2c-0.7-2.1-2.2-4.3-4.4-5.2
				c-2.3-1-4.3,0.5-5.4,2.5c-1.5,2.7-2.4,5.7-3.9,8.5c-1.4,2.6-3.6,4.9-6.6,5.6c-2.7,0.6-4.8-0.8-6.1-3c-2.1-3.6-2.5-9.1-7-10.5
				c-0.2-0.1-0.6,0-0.7,0.3c-1.7,3.4-3.3,6.9-5,10.3c-0.7,1.5-1.3,3-2.2,4.4c-0.8,1.2-2.2,3-3.8,2.7c-1.5-0.3-2.2-2.3-2.8-3.5
				c-0.8-1.7-1.6-3.5-2.5-5.2c-0.7-1.6-1.4-3.1-2.2-4.7c-0.5-1-1.2-2.1-2.2-2.6c-2.4-1.2-4.2,1.4-5.5,3c-1.7,2.3-3.1,4.8-4.5,7.3
				c-2.7,4.8-5.6,10.4-10.6,13.2c-4.3,2.4-6-3-7.5-6c-1.9-3.8-3.7-7.7-5.6-11.5c-0.1-0.3-0.6-0.4-0.9-0.2c-4.1,2.6-5.1,7.7-6.2,12.1
				c-0.6,2.4-1.2,4.9-2.4,7c-0.6,1-1.4,2-2.4,2.6c-0.8,0.5-1.7,1-2.6,0.7c-0.8-0.3-1.3-1.2-1.5-2c-0.7-2-1.1-4.2-1.5-6.2
				c-0.5-2.3-1.1-4.5-1.6-6.8c-0.4,0.1-0.8,0.2-1.2,0.3c2.5,7.2,3.5,14.8,2.9,22.4c0.4-0.1,0.8-0.1,1.2-0.2
				c-1.9-6.4-2.9-12.9-3-19.6C209,339.4,207.8,339.4,207.8,340.2L207.8,340.2z"/>
		</g>
	</g>
	<g class="st2">
		<g>
			<path d="M329.1,328.1c11.7-24.8,23.4-49.5,35.1-74.3c3.3-7.1,6.7-14.1,10-21.2c-0.4-0.2-0.8-0.3-1.1-0.5c-0.7,3.4,1.6,7,5.1,7.6
				c-0.1-0.3-0.2-0.6-0.4-0.9c-11.8,23.8-24.1,47.4-36.8,70.8c-3.6,6.6-7.2,13.2-10.9,19.7c0.3,0,0.7-0.1,1-0.1
				c-2-2.2,0.5-6.5,1.4-8.7c1.2-3,2.4-6,3.6-9c2.5-6.1,5.2-12.2,8-18.3c5.6-11.9,11.6-23.6,18.2-35.1c3.7-6.4,7.5-12.7,11.5-19
				c0.4-0.7-0.6-1.3-1.1-0.6c-14.8,23.1-27.6,47.6-38.1,73c-1.4,3.5-2.8,7-4.2,10.5c-1,2.5-2.4,5.7-0.3,8c0.3,0.3,0.8,0.2,1-0.1
				c13-23.2,25.5-46.7,37.6-70.4c3.4-6.7,6.8-13.4,10.1-20.1c0.2-0.3,0-0.8-0.4-0.9c-2.8-0.5-4.8-3.3-4.2-6.1
				c0.1-0.6-0.8-1.2-1.1-0.5c-11.7,24.8-23.4,49.5-35.1,74.3c-3.3,7.1-6.7,14.1-10,21.2C327.7,328.2,328.8,328.8,329.1,328.1
				L329.1,328.1z"/>
		</g>
	</g>
	<g class="st2">
		<g>
			<path d="M341.2,305.5c-2.7,8.1-6.5,15.7-11.3,22.7c0.4,0.2,0.7,0.4,1.1,0.6c7.5-17.4,15.9-34.4,25.4-50.9
				c-0.4-0.2-0.7-0.4-1.1-0.6c-6.8,15.3-14.4,30.3-23,44.7c0.4,0.2,0.7,0.4,1.1,0.6c7.9-16.1,16.2-32,24.6-47.9
				c2.4-4.5,4.8-8.9,7.2-13.3c-0.4-0.2-0.7-0.4-1.1-0.6c-5.6,11.9-12.5,23.2-20.5,33.6c0.3,0.3,0.7,0.5,1,0.8
				c8.8-15.5,17.6-31,26.4-46.5c-0.4-0.2-0.8-0.3-1.1-0.5c-3.5,10.1-8.5,19.6-14.9,28.2c0.4,0.2,0.7,0.4,1.1,0.6
				c3-6.4,6.7-12.5,10.9-18.1c-0.4-0.2-0.8-0.3-1.1-0.5c-1.1,2.9-2.8,5.3-5.1,7.3c0.3,0.3,0.7,0.5,1,0.8c1.6-2.4,2.8-4.9,3.6-7.7
				c0.2-0.6-0.6-1-1-0.6c-2.6,2.6-5.1,5.1-7.7,7.7c-0.6,0.6,0.3,1.5,0.9,0.9c2.6-2.6,5.1-5.1,7.7-7.7c-0.3-0.2-0.7-0.4-1-0.6
				c-0.8,2.6-1.9,5.1-3.5,7.4c-0.4,0.6,0.5,1.2,1,0.8c2.5-2.1,4.3-4.8,5.4-7.9c0.3-0.7-0.8-1-1.1-0.5c-4.3,5.7-7.9,11.7-10.9,18.1
				c-0.3,0.7,0.6,1.3,1.1,0.6c6.4-8.7,11.5-18.3,15-28.5c0.2-0.7-0.8-1.1-1.1-0.5c-8.8,15.5-17.6,31-26.4,46.5
				c-0.3,0.6,0.5,1.3,1,0.8c8.1-10.5,15.1-21.8,20.7-33.9c0.3-0.7-0.7-1.3-1.1-0.6c-8.6,15.7-17,31.6-25.1,47.6
				c-2.3,4.5-4.5,9-6.8,13.6c-0.4,0.7,0.7,1.3,1.1,0.6c8.5-14.4,16.2-29.4,23-44.7c0.3-0.7-0.7-1.3-1.1-0.6
				c-9.5,16.4-17.9,33.4-25.4,50.9c-0.3,0.7,0.6,1.3,1.1,0.6c4.9-7.1,8.7-14.8,11.4-23C342.6,305.1,341.4,304.7,341.2,305.5
				L341.2,305.5z"/>
		</g>
	</g>
</g>
</svg>
